<?xml version="1.0" encoding="UTF-8" standalone="no"?>
<svg
   xmlns:dc="http://purl.org/dc/elements/1.1/"
   xmlns:cc="http://creativecommons.org/ns#"
   xmlns:rdf="http://www.w3.org/1999/02/22-rdf-syntax-ns#"
   xmlns:svg="http://www.w3.org/2000/svg"
   xmlns="http://www.w3.org/2000/svg"
   viewBox="0 0 793.70667 1122.52"
   height="1122.52"
   width="793.70667"
   xml:space="preserve"
   version="1.1"
   id="svg2"><metadata
     id="metadata8"><rdf:RDF><cc:Work
         rdf:about=""><dc:format>image/svg+xml</dc:format><dc:type
           rdf:resource="http://purl.org/dc/dcmitype/StillImage" /></cc:Work></rdf:RDF></metadata><defs
     id="defs6"><clipPath
       id="clipPath16"
       clipPathUnits="userSpaceOnUse"><path
         id="path18"
         d="m 0,841.89 595.28,0 L 595.28,0 0,0 0,841.89 Z" /></clipPath></defs><g
     transform="matrix(1.3333333,0,0,-1.3333333,0,1122.52)"
     id="g10"><g
       id="g12"><g
         clip-path="url(#clipPath16)"
         id="g14"><g
           transform="translate(113.125,275.875)"
           id="g20"><path
             id="path22"
             style="fill:#ffffff;fill-opacity:1;fill-rule:nonzero;stroke:none"
             d="m 0,0 c 0,0 -6.75,0.375 -9.75,4.625 -3,4.25 -1.891,14.393 2.375,22 C -1.292,37.474 11.5,44.125 24,46.875 36.5,49.625 52.75,49.5 64.625,40 76.5,30.5 80.75,12.375 80.875,3.125 81,-6.125 79.625,-20.25 71.75,-33.625 63.875,-47 50.25,-57.375 38.375,-59.375 c -11.875,-2 -19.375,0 -24.75,3.25 -5.375,3.25 -5.5,5.25 -5.5,5.25 0,0 9.375,-1.375 22.375,1.625 13,3 25.633,13.221 31.5,27.625 6.042,14.833 5.458,18.667 5,33.5 -0.433,14.013 -6.875,22 -13.375,26.5 -6.5,4.5 -21.25,4.125 -27.25,1.875 C 20.375,38 9.5,31.25 5,22.25 0.5,13.25 0,0 0,0" /></g><g
           transform="translate(125.5,312.125)"
           id="g24"><path
             id="path26"
             style="fill:#ffffff;fill-opacity:1;fill-rule:nonzero;stroke:none"
             d="m 0,0 c 0,0 13,-1.625 16.25,-2.25 3.25,-0.625 4.375,-2.125 3.75,-4.625 -0.625,-2.5 -4.75,-21 -7.125,-43.75 -2.375,-22.75 -1.375,-38.25 -1.375,-38.25 0,0 -6.193,-0.798 -10.125,-0.75 -3.932,0.048 -5.625,2.5 -5.625,2.5 0,0 3,32.75 3.75,52.125 0.75,19.375 0.625,33.75 0.625,33.75 L 0,0 Z" /></g><g
           transform="translate(240.25,272.75)"
           id="g28"><path
             id="path30"
             style="fill:#ffffff;fill-opacity:1;fill-rule:nonzero;stroke:none"
             d="m 0,0 2.917,-1.917 c 0,0 -0.417,-4.416 -4.667,-11.833 -4.25,-7.417 -9.667,-13.167 -13.917,-14.833 -4.25,-1.667 -13.733,-0.925 -18.833,3.916 -4.917,4.667 -9.167,12.917 -7.25,29.167 1.917,16.25 9.25,25.25 11.333,27.583 2.084,2.334 6.667,7.167 12.667,8.334 6,1.166 11.833,-3.584 12.083,-5.584 0.25,-2 -4.416,-5.916 -4.916,-5.916 -0.5,0 -5.834,0.25 -11.584,-9.667 -5.75,-9.917 -5.75,-24.417 -4.083,-31.833 1.667,-7.417 5.917,-9.75 8.083,-9.167 2.167,0.583 4.334,1 8.25,5.75 3.917,4.75 5.75,7.706 7.25,10.561 C -1.167,-2.583 0,0 0,0" /></g><g
           transform="translate(223.1667,310.8333)"
           id="g32"><path
             id="path34"
             style="fill:#ffffff;fill-opacity:1;fill-rule:nonzero;stroke:none"
             d="m 0,0 6.097,1.447 c 0,0 4.236,-1.864 5.57,-3.947 1.333,-2.083 1.75,-7.167 1.333,-15.667 -0.417,-8.5 -9.5,-19.5 -13.667,-23.166 -4.166,-3.667 -10.25,-8.584 -10.25,-8.584 l 0,6.917 c 0,0 6.667,5.083 10.5,12.833 3.834,7.75 4.75,10.75 4.5,16.334 -0.25,5.583 -2,7.333 -2,7.333 L 0,0 Z" /></g><g
           transform="translate(309.25,299)"
           id="g36"><path
             id="path38"
             style="fill:#ffffff;fill-opacity:1;fill-rule:nonzero;stroke:none"
             d="m 0,0 2.667,-2.5 c 0,0 -4.084,-13.083 -10.667,-23.75 -6.583,-10.667 -9,-13.083 -13.333,-14.167 -4.334,-1.083 -13.5,-2.666 -24.25,3.25 -10.75,5.917 -15.667,22 -17.25,32 -1.584,10 -1.22,26.235 3.916,40.75 5.834,16.486 17.917,25.667 22.834,29.167 4.916,3.5 15.083,7 22.666,5.833 C -5.833,69.417 -1.75,60.667 -1.917,55 -2.083,49.333 -3.75,42.25 -5.75,39.833 c -2,-2.416 -5.25,-1.75 -7.75,-0.5 -2.5,1.25 -5.583,3.834 -4.917,5.917 0.667,2.083 4.584,6.333 4.917,10.75 0.333,4.417 -0.25,8 -3.417,9.083 -3.166,1.084 -9.299,-1.833 -13.483,-6.833 -4.183,-5 -9.767,-12.917 -12.35,-28.5 -2.583,-15.583 -1.75,-29 0.5,-39.333 2.25,-10.334 7.583,-18.75 12.667,-20.417 3.015,-0.989 6.166,-0.917 11,4.083 4.833,5 11.583,14.167 13.416,17.25 C -3.333,-5.583 0,0 0,0" /></g><g
           transform="translate(326.6667,393.9167)"
           id="g40"><path
             id="path42"
             style="fill:#ffffff;fill-opacity:1;fill-rule:nonzero;stroke:none"
             d="m 0,0 c 0,0 2.917,0.25 8.25,-0.583 5.333,-0.834 8.583,-2.25 8.167,-3.75 C 16,-5.833 14.75,-7.833 12.25,-15.417 9.75,-23 4.5,-42.25 3.5,-57.75 2.732,-69.661 2.417,-92 3.75,-102.333 c 1.333,-10.334 3.583,-15.75 4,-16.917 0.417,-1.167 -0.417,-1.917 -1.75,-1.75 -1.333,0.167 -9.25,3.917 -11.917,9 -2.666,5.083 -4.916,17.25 -4.833,27.917 0.083,10.666 0.463,34.469 2.5,49.916 C -3.667,0.583 0,0 0,0" /></g><g
           transform="translate(367.5,348)"
           id="g44"><path
             id="path46"
             style="fill:#ffffff;fill-opacity:1;fill-rule:nonzero;stroke:none"
             d="m 0,0 c 0,0 4.167,2.5 6,3 1.833,0.5 5.25,-1.75 7.167,-5.25 1.916,-3.5 4.083,-12.667 4.25,-18.833 0.166,-6.167 -2.334,-18.25 -8.709,-27.167 -6.375,-8.917 -13.791,-12.583 -15.625,-12.667 -1.833,-0.083 -7,4.334 -7,4.334 0,0 13.834,2.166 18.167,15.5 C 8.583,-27.75 7.667,-16.5 5.5,-9.667 3.333,-2.833 0,0 0,0" /></g><g
           transform="translate(373.25,347.5833)"
           id="g48"><path
             id="path50"
             style="fill:#ffffff;fill-opacity:1;fill-rule:nonzero;stroke:none"
             d="m 0,0 c 0,0 -5.917,5.083 -9.083,6.75 -3.167,1.667 -5.084,1.417 -6.167,1.167 -1.083,-0.25 -9.333,-2.667 -16.917,-22.584 -7.583,-19.916 0.584,-35 2.417,-38.25 1.833,-3.25 6.333,-6.083 10.833,-7.083 4.5,-1 6.352,-0.791 7.98,0 1.627,0.79 0.187,5.583 0.187,5.583 l -2.333,-0.25 c 0,0 -6.584,2.334 -7.25,14.167 -0.667,11.833 2.833,21.25 6.583,28.083 3.75,6.834 8.5,10.834 10.167,11.084 C -1.917,-1.083 0,0 0,0" /></g><g
           transform="translate(423.75,338.6667)"
           id="g52"><path
             id="path54"
             style="fill:#ffffff;fill-opacity:1;fill-rule:nonzero;stroke:none"
             d="m 0,0 c 0,0 -5.667,-17.333 -9.167,-25.667 -3.5,-8.333 -5.75,-9.666 -10,-10.166 -4.25,-0.5 -11.333,1.166 -13.666,8.916 -2.334,7.75 -1.75,18 -0.667,31.5 1.083,13.5 7.25,24.167 9.083,25.25 1.834,1.084 7.417,1.334 9.834,0.667 2.416,-0.667 2.416,-3 1.833,-3.917 -0.583,-0.916 -3.833,-10.416 -5.75,-23.666 -1.917,-13.25 -0.917,-27.25 0.417,-28.667 1.333,-1.417 2.083,0 2.75,1.5 0.666,1.5 7.25,16.917 9.416,24.917 2.167,8 5.25,15.083 5.25,15.083 L 0,0 Z" /></g><g
           transform="translate(443.0833,315)"
           id="g56"><path
             id="path58"
             style="fill:#ffffff;fill-opacity:1;fill-rule:nonzero;stroke:none"
             d="m 0,0 c 0,0 -6.25,-2.5 -13.417,0 -7.166,2.5 -9.459,9.987 -10.083,19.083 -0.624,9.096 0.833,24.917 2.833,32 2,7.084 5.084,7 7.5,7.25 2.417,0.25 8.584,0.25 8.667,-1.333 C -4.417,55.417 -7.917,35.167 -8.667,27.833 -9.417,20.5 -7.917,10.34 -5.333,6.295 -2.75,2.25 0,0 0,0" /></g><g
           transform="translate(476.25,383.75)"
           id="g60"><path
             id="path62"
             style="fill:#ffffff;fill-opacity:1;fill-rule:nonzero;stroke:none"
             d="m 0,0 c 0,0 -6.583,2.583 -11.583,2.75 -5,0.167 -8,-3.333 -10.834,-7.417 -2.833,-4.083 -7.916,-18 -8.916,-28.666 -1,-10.667 0.083,-22.917 5.5,-27.584 5.416,-4.666 8.75,-5.25 14.333,-5.25 6.25,0 10,5.5 11.5,8.417 1.5,2.917 -6.333,-2.917 -9.75,-3 -3.417,-0.083 -7.25,1.845 -8.167,10.423 -0.916,8.577 3.5,27.994 8.167,36.494 4.667,8.5 7.167,11.25 8.083,11.833 C -0.75,-1.417 0,0 0,0" /></g><g
           transform="translate(456.75,327.6667)"
           id="g64"><path
             id="path66"
             style="fill:#ffffff;fill-opacity:1;fill-rule:nonzero;stroke:none"
             d="m 0,0 c 0,0 5.561,-5.78 8.489,-4.598 2.928,1.181 6.344,4.515 8.511,10.931 2.167,6.417 5.083,20.334 4.417,29.5 -0.667,9.167 -3.667,23.5 -12.5,35 -8.834,11.5 -18.084,18.917 -19.75,20.167 -1.667,1.25 -1.584,3.75 0,6.833 1.583,3.084 5,6.584 6.333,7.084 1.333,0.5 3.167,-0.167 4.417,-0.917 1.25,-0.75 15.75,-13.083 24.833,-31.083 9.083,-18 7.75,-37.667 6.833,-47.667 C 30.667,15.25 23.083,0.151 18.75,-4.758 14.417,-9.667 9.284,-10.603 5.667,-10.083 2.049,-9.563 0,0 0,0" /></g></g></g></g></svg>