<?xml version="1.0" encoding="UTF-8" standalone="no"?>
<svg
   xmlns:dc="http://purl.org/dc/elements/1.1/"
   xmlns:cc="http://creativecommons.org/ns#"
   xmlns:rdf="http://www.w3.org/1999/02/22-rdf-syntax-ns#"
   xmlns:svg="http://www.w3.org/2000/svg"
   xmlns="http://www.w3.org/2000/svg"
   viewBox="0 0 793.70667 1122.52"
   height="1122.52"
   width="793.70667"
   xml:space="preserve"
   version="1.1"
   id="svg2"><metadata
     id="metadata8"><rdf:RDF><cc:Work
         rdf:about=""><dc:format>image/svg+xml</dc:format><dc:type
           rdf:resource="http://purl.org/dc/dcmitype/StillImage" /></cc:Work></rdf:RDF></metadata><defs
     id="defs6"><clipPath
       id="clipPath16"
       clipPathUnits="userSpaceOnUse"><path
         id="path18"
         d="m 0,841.89 595.28,0 L 595.28,0 0,0 0,841.89 Z" /></clipPath></defs><g
     transform="matrix(1.3333333,0,0,-1.3333333,0,1122.52)"
     id="g10"><g
       id="g12"><g
         clip-path="url(#clipPath16)"
         id="g14"><path
           id="path20"
           style="fill:#ffffff;fill-opacity:1;fill-rule:evenodd;stroke:none"
           d="m 335.373,442.645 -22.668,0 0,2.115 22.668,0 0,-2.115 z m 0,2.115 12.333,-77.874 0.118,10.337 11.158,1.291 39.818,36.295 -13.154,13.389 8.574,12.333 3.405,-0.353 16.914,-21.846 -0.939,-4.463 c -8.809,-8.34 -18.205,-15.974 -28.308,-23.022 -12.215,-8.692 -24.547,-16.797 -37.586,-23.961 l -12.333,77.874 z m 0,-6.578 -22.668,0 0,1.645 22.668,0 0,-1.645 z m 16.562,-3.759 -0.118,10.689 c 0,1.879 0.705,2.231 2.115,0.939 0.588,-0.939 1.175,-3.17 1.292,-6.695 l -2.114,-19.849 -3.289,-13.86 2.114,28.776 z m 6.929,-7.752 0.706,7.4 c 2.937,-0.823 5.637,-1.879 7.986,-3.289 8.223,-4.815 16.092,-9.867 23.727,-15.386 -8.691,-9.046 -17.736,-17.384 -27.602,-25.019 -4.817,-3.994 -10.102,-7.281 -15.975,-9.749 l 4.935,14.801 6.223,31.242 z m 18.56,14.682 1.762,-3.171 -2.937,-2.114 -15.153,7.752 -7.986,12.803 24.314,-15.27 z m -47.805,33.006 4.932,3.289 -0.822,-29.6 -4.816,0 0.706,26.311 z m -14.683,4.58 1.175,0.353 4.58,-9.514 0.354,-6.578 -0.823,-14.799 -7.517,0 2.231,30.538 z m -22.669,-23.138 c 0,-1.293 -0.587,-1.88 -1.762,-1.88 -1.174,0 -1.879,0.587 -1.879,1.88 0,1.174 0.705,1.644 1.879,1.644 1.175,0 1.762,-0.47 1.762,-1.644 m -2.466,20.32 c 0,0.94 0.587,1.527 1.762,1.527 1.056,0 1.526,-0.587 1.526,-1.527 0,-1.293 -0.47,-1.762 -1.526,-1.762 -1.175,0 -1.762,0.469 -1.762,1.762 m 30.069,74.232 -1.175,-1.527 -9.867,-4.463 2.35,-3.876 9.044,-1.527 5.521,1.174 4.11,-3.641 -3.523,-2.584 -2.82,-1.174 2.82,-3.171 0,-1.41 -4.582,-0.94 -3.053,-3.171 0.352,-2.702 4.112,1.057 1.643,0.118 0.705,-1.175 -2.936,-1.409 c -0.469,0 -1.175,-0.94 -1.88,-3.29 l 1.293,0 1.761,-3.287 c 0.235,-1.058 -0.822,-1.763 -2.7,-2.115 l -13.156,2.467 -13.977,-0.352 -5.404,-3.29 0,-2.348 7.165,-5.873 -0.587,-9.867 c 0,-1.409 -1.174,-1.175 -3.759,0.47 l -13.742,8.575 0.235,8.339 1.762,0.352 3.641,16.326 -4.816,6.343 -0.587,7.401 2.466,2.7 4.934,0.823 6.107,-5.286 3.29,0 1.408,6.343 13.157,8.222 9.043,0 1.645,-2.232 z m 71.061,-93.613 -5.756,1.88 -23.843,16.561 c -7.048,2.936 -10.69,4.463 -11.394,4.463 l -0.471,3.407 7.519,-1.058 35.706,-24.079 -1.761,-1.174 z m -5.756,-6.577 -0.352,-2.115 -4.111,0.823 -22.317,13.859 -3.523,0 -3.759,2.937 -1.175,4.581 c 3.759,-1.175 7.282,-2.701 10.571,-4.581 l 24.666,-15.504 z M 230.25,442.645 c 0.47,-6.577 0.94,-12.92 1.879,-19.027 l 4.111,-33.124 -3.17,-0.821 -4.229,-0.354 c -6.46,5.404 -12.45,11.395 -17.972,18.089 -4.58,5.99 -8.692,12.334 -12.097,19.146 l 1.057,1.644 c 5.638,3.642 11.393,7.048 17.266,10.337 3.876,1.879 7.987,3.758 12.215,5.285 l 0.94,-1.175 z m 3.172,12.803 -1.175,-2.115 -21.847,-12.802 -1.175,-1.879 -1.175,1.879 0.706,2.114 19.262,15.152 4.934,0.471 0.47,-2.82 z m -37.822,7.282 -0.705,2.232 40.053,21.377 -1.996,-3.758 -26.663,-15.622 -10.689,-4.229 z m 4.229,-11.393 0,2.584 33.123,19.968 0.118,-2.819 -27.603,-20.32 -3.29,-1.175 -2.348,1.762 z m -13.39,4.933 2.936,-4.462 c -3.172,-3.407 -7.634,-5.404 -13.155,-6.344 l -1.527,-1.997 -0.235,-3.289 3.877,-13.624 6.577,-12.332 c 1.879,-2.937 11.863,-11.277 29.951,-25.136 l 7.87,-8.458 5.755,-0.587 c 4.464,3.642 8.34,5.872 11.981,6.342 l 0.705,17.619 -3.994,26.31 1.292,45.221 3.994,5.521 c -1.175,-7.752 -1.175,-13.507 -0.235,-17.149 l 0,-83.629 3.523,-5.521 2.114,40.054 c 1.175,21.259 1.292,35.001 0.822,40.992 l -0.822,9.983 1.292,7.4 5.99,7.87 -2.348,-22.434 -3.759,-89.973 -2.467,-18.088 7.753,0 3.406,54.266 c 1.057,29.598 1.996,48.744 2.936,57.201 0.471,4.933 1.997,12.215 4.346,21.729 l 1.41,1.997 0.705,-1.997 0.117,-5.755 -3.876,-95.022 -2.114,-14.801 0.587,-17.618 7.87,0 10.218,127.911 6.461,2.584 -8.575,-130.495 11.511,0 8.222,127.911 3.407,4.463 3.524,-3.641 -5.992,-128.733 9.749,0 2.115,62.488 6.929,-2.936 -1.527,-59.552 9.985,0 0,40.759 2.701,17.969 c 1.409,0 2.936,1.058 4.463,3.29 l -3.641,-62.018 6.46,0 6.695,103.127 c 0.353,10.455 -1.175,20.673 -4.463,30.539 l 5.286,-4.581 3.757,-29.247 -7.517,-99.838 5.873,0 0.353,4.11 8.574,2.35 c 5.286,4.582 26.193,17.031 62.958,37.352 l 18.91,19.145 -1.528,7.048 -13.976,19.967 -17.267,14.917 -4.581,5.756 -21.025,14.682 -26.779,12.097 c -4.581,2.233 -10.925,4.464 -19.264,6.812 l -2.113,1.411 -9.045,3.288 c -6.694,1.88 -5.989,3.642 1.997,5.756 4.346,1.409 6.46,3.054 6.695,4.933 0,1.527 -0.704,3.289 -1.997,4.816 l 0.352,2.584 2.82,4.815 c -0.822,2.819 -1.175,5.638 -1.175,8.34 l 3.758,1.997 1.175,2.467 -0.822,2.231 -5.639,4.698 c 0.119,3.054 -0.117,6.578 -1.408,10.336 l -1.645,5.756 c -0.234,1.409 1.058,4.816 3.759,10.454 l -2.937,8.809 -2.348,2.114 -8.223,-0.352 c -2.584,2.231 -6.812,3.523 -13.155,4.111 l -11.629,-2.467 -9.866,-0.822 -5.637,-4.581 -7.4,-3.993 c -2.584,-5.287 -5.051,-8.34 -7.87,-9.163 l -3.758,-10.218 7.87,-28.777 7.047,-9.983 3.524,-3.29 0,-6.107 -1.645,0 -8.926,-7.048 -26.311,-3.759 -32.066,-16.443 -46.63,-30.304 -4.111,-7.048 -0.352,-11.745 8.222,-16.092 13.977,-14.211 c 18.441,-11.395 36.882,-22.553 55.204,-33.593 l 4.112,-4.698 -2.937,-8.458 10.22,0 c 1.525,3.877 2.231,7.871 2.113,11.982 0,3.17 -0.821,6.106 -2.701,9.043 l -12.568,0 -7.87,3.759 c -4.58,3.524 -10.219,7.165 -16.679,10.923 -6.107,3.524 -12.333,7.87 -18.675,12.45 -11.394,9.046 -19.381,17.619 -23.844,25.724 l -1.527,6.225 0.352,7.164 1.997,3.877 7.87,7.517 13.155,7.4 1.997,-0.353 z" /><g
           transform="translate(286.0417,540.4872)"
           id="g22"><path
             id="path24"
             style="fill:#ffffff;fill-opacity:1;fill-rule:evenodd;stroke:none"
             d="m 0,0 -5.285,0.117 -1.292,-2.584 0.822,-1.996 1.996,0.352 1.175,-2.115 1.762,-1.996 1.762,0.117 0.822,4.111 L 0,0 Z" /></g><g
           transform="translate(205.819,325.071)"
           id="g26"><path
             id="path28"
             style="fill:#ffffff;fill-opacity:1;fill-rule:evenodd;stroke:none"
             d="m 0,0 -20.203,0 0,-18.322 -8.221,0 0,-18.089 8.221,0 0,-26.193 c 0,-2.584 1.058,-5.05 2.937,-6.93 2.232,-1.88 4.581,-2.818 7.282,-2.818 l 21.612,0 0,17.969 -7.047,0 c -2.937,0 -4.464,1.645 -4.464,4.816 l 0,13.156 7.752,0 0,18.089 -7.752,0 L 0,0 Z" /></g><g
           transform="translate(277.8196,330.0037)"
           id="g30"><path
             id="path32"
             style="fill:#ffffff;fill-opacity:1;fill-rule:evenodd;stroke:none"
             d="m 0,0 -20.084,0 0,-67.537 c 0,-6.578 3.17,-9.748 9.866,-9.748 l 29.951,0 0,17.969 -15.034,0 C 1.645,-59.316 0,-57.671 0,-54.5 L 0,0 Z" /></g><g
           transform="translate(546.9133,308.1576)"
           id="g34"><path
             id="path36"
             style="fill:#ffffff;fill-opacity:1;fill-rule:evenodd;stroke:none"
             d="m 0,0 c -6.695,0 -9.984,-3.171 -9.984,-9.867 l 0,-45.572 20.203,0 0,32.888 c 0,2.937 1.526,4.462 4.581,4.462 l 10.571,0 L 25.371,0 0,0 Z" /></g><g
           transform="translate(28.2253,329.8873)"
           id="g38"><path
             id="path40"
             style="fill:#ffffff;fill-opacity:1;fill-rule:evenodd;stroke:none"
             d="m 0,0 c -2.82,0 -5.169,-1.058 -7.4,-2.937 -1.88,-1.996 -2.937,-4.463 -2.937,-7.281 l 0,-66.951 20.438,0 0,27.485 10.805,0 0,18.087 -10.805,0 0,8.692 c 0,3.29 1.644,4.816 4.58,4.816 l 15.035,0 L 29.716,0 0,0 Z" /></g><g
           transform="translate(74.2672,280.555)"
           id="g42"><path
             id="path44"
             style="fill:#ffffff;fill-opacity:1;fill-rule:evenodd;stroke:none"
             d="m 0,0 c 0,5.403 2.937,8.105 8.575,8.105 5.403,0 8.222,-2.702 8.222,-8.105 0,-5.52 -2.819,-8.222 -8.222,-8.222 C 2.937,-8.222 0,-5.52 0,0 m 28.425,20.085 c -5.52,5.522 -12.215,8.221 -19.85,8.221 -8.105,0 -14.682,-2.699 -20.202,-8.221 -5.639,-5.637 -8.458,-12.45 -8.458,-20.085 0,-8.105 2.819,-14.682 8.458,-20.202 5.637,-5.639 12.332,-8.575 20.202,-8.575 7.635,0 14.33,2.936 19.85,8.575 5.638,5.637 8.456,12.333 8.456,20.202 0,7.635 -2.818,14.448 -8.456,20.085" /></g><g
           transform="translate(136.7544,280.555)"
           id="g46"><path
             id="path48"
             style="fill:#ffffff;fill-opacity:1;fill-rule:evenodd;stroke:none"
             d="m 0,0 c 0,5.403 2.937,8.105 8.574,8.105 5.521,0 8.222,-2.702 8.222,-8.105 0,-5.52 -2.701,-8.222 -8.222,-8.222 C 2.937,-8.222 0,-5.52 0,0 m 28.424,20.085 c -5.519,5.522 -12.215,8.221 -19.85,8.221 -7.987,0 -14.681,-2.699 -20.202,-8.221 -5.638,-5.637 -8.457,-12.45 -8.457,-20.085 0,-8.105 2.819,-14.682 8.457,-20.202 5.638,-5.639 12.333,-8.575 20.202,-8.575 7.635,0 14.331,2.936 19.85,8.575 5.639,5.637 8.457,12.333 8.457,20.202 0,7.635 -2.818,14.448 -8.457,20.085" /></g><g
           transform="translate(324.6852,286.3113)"
           id="g50"><path
             id="path52"
             style="fill:#ffffff;fill-opacity:1;fill-rule:evenodd;stroke:none"
             d="m 0,0 c 1.645,1.527 3.523,2.349 5.756,2.349 5.519,0 8.222,-2.703 8.222,-8.105 0,-5.52 -2.703,-8.223 -8.222,-8.223 -5.521,0 -8.105,2.703 -8.105,8.223 0,1.996 0.822,3.877 2.349,5.756 M 25.957,14.329 C 20.438,19.85 13.742,22.55 5.756,22.55 c -7.87,0 -14.448,-2.7 -20.085,-8.221 -5.522,-5.638 -8.222,-12.451 -8.222,-20.085 0,-8.105 2.7,-14.683 8.222,-20.202 5.637,-5.639 12.215,-8.576 20.085,-8.576 7.986,0 14.682,2.937 20.201,8.576 5.639,5.519 8.34,12.097 8.34,20.202 0,7.634 -2.701,14.447 -8.34,20.085" /></g><g
           transform="translate(373.6648,300.64)"
           id="g54"><path
             id="path56"
             style="fill:#ffffff;fill-opacity:1;fill-rule:evenodd;stroke:none"
             d="m 0,0 c -5.638,-5.637 -8.458,-12.45 -8.458,-20.085 0,-8.105 2.82,-14.682 8.458,-20.202 5.637,-5.639 12.333,-8.575 20.202,-8.575 10.102,0 18.089,4.465 23.844,13.155 l -17.149,11.04 c -1.644,-2.466 -3.758,-3.64 -6.695,-3.64 -5.638,0 -8.575,2.702 -8.575,8.222 0,5.403 2.937,8.105 8.575,8.105 2.937,0 5.051,-1.291 6.695,-3.877 L 44.046,-4.933 C 38.291,3.76 30.304,8.221 20.202,8.221 12.097,8.221 5.521,5.522 0,0" /></g><g
           transform="translate(565.3543,258.0041)"
           id="g58"><path
             id="path60"
             style="fill:#ffffff;fill-opacity:1;fill-rule:evenodd;stroke:none"
             d="M 0,0 C 0,2.819 1.291,4.345 4.228,4.345 7.165,4.345 8.692,2.819 8.692,0 8.692,-2.936 7.165,-4.464 4.228,-4.464 1.291,-4.464 0,-2.936 0,0 M 4.228,5.285 C 0.821,5.285 -0.941,3.524 -0.941,0 c 0,-3.641 1.762,-5.285 5.169,-5.285 3.641,0 5.285,1.644 5.285,5.285 0,3.524 -1.644,5.285 -5.285,5.285" /></g><g
           transform="translate(568.4075,258.4733)"
           id="g62"><path
             id="path64"
             style="fill:#ffffff;fill-opacity:1;fill-rule:evenodd;stroke:none"
             d="m 0,0 0,1.527 1.528,0 1.525,-0.471 C 3.053,0.352 2.35,0 1.057,0 L 0,0 Z m 3.877,0.705 c 0,1.175 -0.587,1.644 -1.998,1.644 l -2.7,0 0,-5.754 0.821,0 0,2.582 1.057,0 1.645,-2.582 1.175,0 -1.88,2.582 c 1.293,0 1.88,0.471 1.88,1.528" /></g><g
           transform="translate(442.8459,292.0666)"
           id="g66"><path
             id="path68"
             style="fill:#ffffff;fill-opacity:1;fill-rule:evenodd;stroke:none"
             d="m 0,0 0,37.937 -20.437,0 0,-77.285 20.437,0 0,16.325 13.508,-16.325 23.61,0 -23.962,28.777 19.027,23.255 -21.963,0 L 0,0 Z" /></g><g
           transform="translate(500.0485,289.5991)"
           id="g70"><path
             id="path72"
             style="fill:#ffffff;fill-opacity:1;fill-rule:evenodd;stroke:none"
             d="M 0,0 C 3.993,1.175 7.165,0.118 9.748,-2.936 L -6.109,-6.578 C -5.052,-3.405 -3.054,-1.293 0,0 m 31.243,-6.929 c 0,4.699 -1.878,9.748 -5.755,15.269 C 20.555,15.152 13.742,18.911 4.815,19.38 -5.991,19.968 -14.33,16.209 -20.321,7.87 c -3.757,-5.169 -5.638,-10.806 -5.638,-16.914 0,-8.105 2.937,-14.682 8.575,-20.202 5.639,-5.639 12.332,-8.575 20.203,-8.575 6.578,0 12.451,1.879 17.383,5.872 l 6.813,7.283 -16.443,10.571 -1.999,-2.349 C 5.874,-18.675 2.819,-19.145 -0.47,-17.97 l -4.111,3.17 35.824,7.871 z" /></g></g></g></g></svg>