<?xml version="1.0" encoding="UTF-8" standalone="no"?>
<svg
   xmlns:dc="http://purl.org/dc/elements/1.1/"
   xmlns:cc="http://creativecommons.org/ns#"
   xmlns:rdf="http://www.w3.org/1999/02/22-rdf-syntax-ns#"
   xmlns:svg="http://www.w3.org/2000/svg"
   xmlns="http://www.w3.org/2000/svg"
   viewBox="0 0 432.95999 98.666664"
   height="98.666664"
   width="432.95999"
   xml:space="preserve"
   version="1.1"
   id="svg2"><metadata
     id="metadata8"><rdf:RDF><cc:Work
         rdf:about=""><dc:format>image/svg+xml</dc:format><dc:type
           rdf:resource="http://purl.org/dc/dcmitype/StillImage" /></cc:Work></rdf:RDF></metadata><defs
     id="defs6"><clipPath
       id="clipPath16"
       clipPathUnits="userSpaceOnUse"><path
         id="path18"
         d="m 0,74 324.72,0 0,-74 L 0,0 0,74 Z" /></clipPath></defs><g
     transform="matrix(1.3333333,0,0,-1.3333333,0,98.666667)"
     id="g10"><g
       id="g12"><g
         clip-path="url(#clipPath16)"
         id="g14"><g
           transform="translate(165.5744,34.9424)"
           id="g20"><path
             id="path22"
             style="fill:none;stroke:#52ce9e;stroke-width:2;stroke-linecap:butt;stroke-linejoin:miter;stroke-miterlimit:10;stroke-dasharray:none;stroke-opacity:1"
             d="m 0,0 c 1.577,-1.576 1.577,-4.132 0,-5.709 -1.576,-1.576 -4.132,-1.576 -5.709,0 -1.576,1.577 -1.576,4.133 0,5.709 1.577,1.577 4.133,1.577 5.709,0 z" /></g><g
           transform="translate(164.8078,41.1758)"
           id="g24"><path
             id="path26"
             style="fill:none;stroke:#52ce9e;stroke-width:2;stroke-linecap:butt;stroke-linejoin:miter;stroke-miterlimit:10;stroke-dasharray:none;stroke-opacity:1"
             d="m 0,0 c 1.153,-1.153 1.153,-3.022 0,-4.175 -1.153,-1.154 -3.023,-1.154 -4.176,0 -1.153,1.153 -1.153,3.022 0,4.175 1.153,1.153 3.023,1.153 4.176,0 z" /></g><g
           transform="translate(176.7408,36)"
           id="g28"><path
             id="path30"
             style="fill:none;stroke:#52ce9e;stroke-width:2;stroke-linecap:butt;stroke-linejoin:miter;stroke-miterlimit:10;stroke-dasharray:none;stroke-opacity:1"
             d="M 0,0 110.583,0" /></g><g
           transform="translate(38.1158,36)"
           id="g32"><path
             id="path34"
             style="fill:none;stroke:#52ce9e;stroke-width:2;stroke-linecap:butt;stroke-linejoin:miter;stroke-miterlimit:10;stroke-dasharray:none;stroke-opacity:1"
             d="M 0,0 110.583,0" /></g></g></g></g></svg>