<?xml version="1.0" encoding="UTF-8" standalone="no"?>
<svg
   xmlns:dc="http://purl.org/dc/elements/1.1/"
   xmlns:cc="http://creativecommons.org/ns#"
   xmlns:rdf="http://www.w3.org/1999/02/22-rdf-syntax-ns#"
   xmlns:svg="http://www.w3.org/2000/svg"
   xmlns="http://www.w3.org/2000/svg"
   viewBox="0 0 1730.2267 287.60001"
   height="287.60001"
   width="1730.2267"
   xml:space="preserve"
   version="1.1"
   id="svg2"><metadata
     id="metadata8"><rdf:RDF><cc:Work
         rdf:about=""><dc:format>image/svg+xml</dc:format><dc:type
           rdf:resource="http://purl.org/dc/dcmitype/StillImage" /></cc:Work></rdf:RDF></metadata><defs
     id="defs6"><clipPath
       id="clipPath138"
       clipPathUnits="userSpaceOnUse"><path
         id="path140"
         d="m 0,215.7 1297.672,0 0,-215.7 L 0,0 0,215.7 Z" /></clipPath></defs><g
     transform="matrix(1.3333333,0,0,-1.3333333,0,287.6)"
     id="g10"><g
       transform="translate(1017.2736,110.1954)"
       id="g12"><path
         id="path14"
         style="fill:none;stroke:#6b6b6b;stroke-width:2;stroke-linecap:butt;stroke-linejoin:miter;stroke-miterlimit:10;stroke-dasharray:none;stroke-opacity:1"
         d="m 0,0 15.538,9.14 0,-29.248 -15.538,9.14 0,-9.14 -41.129,0 0,29.248 L 0,9.14 0,0 Z" /></g><g
       transform="translate(980.7144,112.0233)"
       id="g16"><path
         id="path18"
         style="fill:none;stroke:#6b6b6b;stroke-width:2;stroke-linecap:butt;stroke-linejoin:miter;stroke-miterlimit:10;stroke-dasharray:none;stroke-opacity:1"
         d="M 0,0 3.656,0" /></g><g
       transform="translate(988.0262,112.0233)"
       id="g20"><path
         id="path22"
         style="fill:none;stroke:#6b6b6b;stroke-width:2;stroke-linecap:butt;stroke-linejoin:miter;stroke-miterlimit:10;stroke-dasharray:none;stroke-opacity:1"
         d="M 0,0 3.656,0" /></g><path
       id="path24"
       style="fill:none;stroke:#6b6b6b;stroke-width:2;stroke-linecap:butt;stroke-linejoin:miter;stroke-miterlimit:10;stroke-dasharray:none;stroke-opacity:1"
       d="m 981.628,104.712 16.452,0 0,-9.14 -16.452,0 0,9.14 z" /><g
       transform="translate(980.7144,126.647)"
       id="g26"><path
         id="path28"
         style="fill:none;stroke:#6b6b6b;stroke-width:2;stroke-linecap:butt;stroke-linejoin:miter;stroke-miterlimit:10;stroke-dasharray:none;stroke-opacity:1"
         d="m 0,0 23.763,0 7.312,-7.312" /></g><g
       transform="translate(494.8643,130.8636)"
       id="g30"><path
         id="path32"
         style="fill:none;stroke:#6b6b6b;stroke-width:2;stroke-linecap:butt;stroke-linejoin:miter;stroke-miterlimit:10;stroke-dasharray:none;stroke-opacity:1"
         d="m 0,0 0,-40.511 -3.241,-6.481 -3.241,6.481 L -6.482,0 0,0 Z" /></g><path
       id="path34"
       style="fill:none;stroke:#6b6b6b;stroke-width:2;stroke-linecap:butt;stroke-linejoin:miter;stroke-miterlimit:10;stroke-dasharray:none;stroke-opacity:1"
       d="m 450.939,130.864 32.408,0 0,-46.992 -32.408,0 0,46.992 z" /><g
       transform="translate(475.2449,130.8636)"
       id="g36"><path
         id="path38"
         style="fill:none;stroke:#6b6b6b;stroke-width:2;stroke-linecap:butt;stroke-linejoin:miter;stroke-miterlimit:10;stroke-dasharray:none;stroke-opacity:1"
         d="M 0,0 0,-46.182" /></g><g
       transform="translate(454.1794,120.3308)"
       id="g40"><path
         id="path42"
         style="fill:none;stroke:#6b6b6b;stroke-width:2;stroke-linecap:butt;stroke-linejoin:miter;stroke-miterlimit:10;stroke-dasharray:none;stroke-opacity:1"
         d="M 0,0 -6.482,0" /></g><g
       transform="translate(454.1794,126.8125)"
       id="g44"><path
         id="path46"
         style="fill:none;stroke:#6b6b6b;stroke-width:2;stroke-linecap:butt;stroke-linejoin:miter;stroke-miterlimit:10;stroke-dasharray:none;stroke-opacity:1"
         d="M 0,0 -6.482,0" /></g><g
       transform="translate(454.1794,113.8491)"
       id="g48"><path
         id="path50"
         style="fill:none;stroke:#6b6b6b;stroke-width:2;stroke-linecap:butt;stroke-linejoin:miter;stroke-miterlimit:10;stroke-dasharray:none;stroke-opacity:1"
         d="M 0,0 -6.482,0" /></g><g
       transform="translate(454.1794,107.3674)"
       id="g52"><path
         id="path54"
         style="fill:none;stroke:#6b6b6b;stroke-width:2;stroke-linecap:butt;stroke-linejoin:miter;stroke-miterlimit:10;stroke-dasharray:none;stroke-opacity:1"
         d="M 0,0 -6.482,0" /></g><g
       transform="translate(454.1794,100.8857)"
       id="g56"><path
         id="path58"
         style="fill:none;stroke:#6b6b6b;stroke-width:2;stroke-linecap:butt;stroke-linejoin:miter;stroke-miterlimit:10;stroke-dasharray:none;stroke-opacity:1"
         d="M 0,0 -6.482,0" /></g><g
       transform="translate(454.1794,94.404)"
       id="g60"><path
         id="path62"
         style="fill:none;stroke:#6b6b6b;stroke-width:2;stroke-linecap:butt;stroke-linejoin:miter;stroke-miterlimit:10;stroke-dasharray:none;stroke-opacity:1"
         d="M 0,0 -6.482,0" /></g><g
       transform="translate(454.1794,87.9223)"
       id="g64"><path
         id="path66"
         style="fill:none;stroke:#6b6b6b;stroke-width:2;stroke-linecap:butt;stroke-linejoin:miter;stroke-miterlimit:10;stroke-dasharray:none;stroke-opacity:1"
         d="M 0,0 -6.482,0" /></g><g
       transform="translate(184.8446,107.3674)"
       id="g68"><path
         id="path70"
         style="fill:none;stroke:#6b6b6b;stroke-width:2;stroke-linecap:butt;stroke-linejoin:miter;stroke-miterlimit:10;stroke-dasharray:none;stroke-opacity:1"
         d="M 0,0 39,0" /></g><g
       transform="translate(212.5589,96.0817)"
       id="g72"><path
         id="path74"
         style="fill:none;stroke:#6b6b6b;stroke-width:2;stroke-linecap:butt;stroke-linejoin:miter;stroke-miterlimit:10;stroke-dasharray:none;stroke-opacity:1"
         d="M 0,0 11.286,11.286 0,22.571" /></g><g
       transform="translate(362.5769,107.3674)"
       id="g76"><path
         id="path78"
         style="fill:none;stroke:#6b6b6b;stroke-width:2;stroke-linecap:butt;stroke-linejoin:miter;stroke-miterlimit:10;stroke-dasharray:none;stroke-opacity:1"
         d="M 0,0 39,0" /></g><g
       transform="translate(390.2912,96.0817)"
       id="g80"><path
         id="path82"
         style="fill:none;stroke:#6b6b6b;stroke-width:2;stroke-linecap:butt;stroke-linejoin:miter;stroke-miterlimit:10;stroke-dasharray:none;stroke-opacity:1"
         d="M 0,0 11.286,11.286 0,22.571" /></g><g
       transform="translate(540.3091,107.3674)"
       id="g84"><path
         id="path86"
         style="fill:none;stroke:#6b6b6b;stroke-width:2;stroke-linecap:butt;stroke-linejoin:miter;stroke-miterlimit:10;stroke-dasharray:none;stroke-opacity:1"
         d="M 0,0 39,0" /></g><g
       transform="translate(568.0234,96.0817)"
       id="g88"><path
         id="path90"
         style="fill:none;stroke:#6b6b6b;stroke-width:2;stroke-linecap:butt;stroke-linejoin:miter;stroke-miterlimit:10;stroke-dasharray:none;stroke-opacity:1"
         d="M 0,0 11.286,11.286 0,22.571" /></g><g
       transform="translate(718.0414,107.3674)"
       id="g92"><path
         id="path94"
         style="fill:none;stroke:#6b6b6b;stroke-width:2;stroke-linecap:butt;stroke-linejoin:miter;stroke-miterlimit:10;stroke-dasharray:none;stroke-opacity:1"
         d="M 0,0 39,0" /></g><g
       transform="translate(745.7557,96.0817)"
       id="g96"><path
         id="path98"
         style="fill:none;stroke:#6b6b6b;stroke-width:2;stroke-linecap:butt;stroke-linejoin:miter;stroke-miterlimit:10;stroke-dasharray:none;stroke-opacity:1"
         d="M 0,0 11.286,11.286 0,22.571" /></g><g
       transform="translate(895.7737,107.3674)"
       id="g100"><path
         id="path102"
         style="fill:none;stroke:#6b6b6b;stroke-width:2;stroke-linecap:butt;stroke-linejoin:miter;stroke-miterlimit:10;stroke-dasharray:none;stroke-opacity:1"
         d="M 0,0 39,0" /></g><g
       transform="translate(923.488,96.0817)"
       id="g104"><path
         id="path106"
         style="fill:none;stroke:#6b6b6b;stroke-width:2;stroke-linecap:butt;stroke-linejoin:miter;stroke-miterlimit:10;stroke-dasharray:none;stroke-opacity:1"
         d="M 0,0 11.286,11.286 0,22.571" /></g><g
       transform="translate(1073.506,107.3674)"
       id="g108"><path
         id="path110"
         style="fill:none;stroke:#6b6b6b;stroke-width:2;stroke-linecap:butt;stroke-linejoin:miter;stroke-miterlimit:10;stroke-dasharray:none;stroke-opacity:1"
         d="M 0,0 39,0" /></g><g
       transform="translate(1101.2203,96.0817)"
       id="g112"><path
         id="path114"
         style="fill:none;stroke:#6b6b6b;stroke-width:2;stroke-linecap:butt;stroke-linejoin:miter;stroke-miterlimit:10;stroke-dasharray:none;stroke-opacity:1"
         d="M 0,0 11.286,11.286 0,22.571" /></g><g
       transform="translate(300.274,100.265)"
       id="g116"><path
         id="path118"
         style="fill:none;stroke:#6b6b6b;stroke-width:2;stroke-linecap:butt;stroke-linejoin:miter;stroke-miterlimit:10;stroke-dasharray:none;stroke-opacity:1"
         d="m 0,0 -22.923,0 0,30.075 42.709,0 0,-30.075 -10.289,0 0,-8.266 L 0,0 Z" /></g><g
       transform="translate(277.3512,116.4892)"
       id="g120"><path
         id="path122"
         style="fill:none;stroke:#6b6b6b;stroke-width:2;stroke-linecap:butt;stroke-linejoin:miter;stroke-miterlimit:10;stroke-dasharray:none;stroke-opacity:1"
         d="m 0,0 -10.314,0 0,-24.962 10.104,0 0,-7.133 8.321,7.133 18.424,0 0,5.711" /></g><path
       id="path124"
       style="fill:none;stroke:#6b6b6b;stroke-width:2;stroke-linecap:butt;stroke-linejoin:miter;stroke-miterlimit:10;stroke-dasharray:none;stroke-opacity:1"
       d="m 844.669,121.023 -44.382,0 0,-34.14 44.382,0 0,34.14 z" /><g
       transform="translate(807.9687,122.7303)"
       id="g126"><path
         id="path128"
         style="fill:none;stroke:#6b6b6b;stroke-width:2;stroke-linecap:butt;stroke-linejoin:miter;stroke-miterlimit:10;stroke-dasharray:none;stroke-opacity:1"
         d="m 0,0 0,5.121 45.235,0 0,-34.14 -6.828,0" /></g><g
       transform="translate(800.2872,95.4185)"
       id="g130"><path
         id="path132"
         style="fill:none;stroke:#6b6b6b;stroke-width:2;stroke-linecap:butt;stroke-linejoin:miter;stroke-miterlimit:10;stroke-dasharray:none;stroke-opacity:1"
         d="M 0,0 11.949,11.949 23.898,-1.707 32.433,3.414 44.382,-6.828" /></g><g
       id="g134"><g
         clip-path="url(#clipPath138)"
         id="g136"><g
           transform="translate(837.841,109.9279)"
           id="g142"><path
             id="path144"
             style="fill:none;stroke:#6b6b6b;stroke-width:2;stroke-linecap:butt;stroke-linejoin:miter;stroke-miterlimit:10;stroke-dasharray:none;stroke-opacity:1"
             d="m 0,0 c 0,-2.357 -1.91,-4.267 -4.268,-4.267 -2.357,0 -4.267,1.91 -4.267,4.267 0,2.357 1.91,4.267 4.267,4.267 C -1.91,4.267 0,2.357 0,0 Z" /></g><g
           transform="translate(1039.1705,142.0585)"
           id="g146"><path
             id="path148"
             style="fill:none;stroke:#6b6b6b;stroke-width:2;stroke-linecap:butt;stroke-linejoin:miter;stroke-miterlimit:10;stroke-dasharray:none;stroke-opacity:1"
             d="m 0,0 c 19.162,-19.159 19.162,-50.222 0,-69.382 -19.16,-19.163 -50.225,-19.163 -69.385,0 -19.162,19.158 -19.162,50.222 0,69.382 19.16,19.163 50.223,19.163 69.385,0 z" /></g><path
           id="path150"
           style="fill:none;stroke:#6b6b6b;stroke-width:2;stroke-linecap:butt;stroke-linejoin:miter;stroke-miterlimit:10;stroke-dasharray:none;stroke-opacity:1"
           d="m 132.196,83.188 -32.76,0 0,48.359 32.76,0 0,-48.359 z" /><g
           transform="translate(112.6965,128.4271)"
           id="g152"><path
             id="path154"
             style="fill:none;stroke:#6b6b6b;stroke-width:2;stroke-linecap:butt;stroke-linejoin:miter;stroke-miterlimit:10;stroke-dasharray:none;stroke-opacity:1"
             d="M 0,0 6.24,0" /></g><g
           transform="translate(99.4366,92.5476)"
           id="g156"><path
             id="path158"
             style="fill:none;stroke:#6b6b6b;stroke-width:2;stroke-linecap:butt;stroke-linejoin:miter;stroke-miterlimit:10;stroke-dasharray:none;stroke-opacity:1"
             d="M 0,0 32.76,0" /></g><g
           transform="translate(99.4366,125.3072)"
           id="g160"><path
             id="path162"
             style="fill:none;stroke:#6b6b6b;stroke-width:2;stroke-linecap:butt;stroke-linejoin:miter;stroke-miterlimit:10;stroke-dasharray:none;stroke-opacity:1"
             d="M 0,0 32.76,0" /></g><g
           transform="translate(117.3764,87.8677)"
           id="g164"><path
             id="path166"
             style="fill:none;stroke:#6b6b6b;stroke-width:2;stroke-linecap:butt;stroke-linejoin:bevel;stroke-miterlimit:10;stroke-dasharray:none;stroke-opacity:1"
             d="m 0,0 c 0,0.861 -0.698,1.56 -1.56,1.56 -0.861,0 -1.56,-0.699 -1.56,-1.56 0,-0.862 0.699,-1.56 1.56,-1.56 C -0.698,-1.56 0,-0.862 0,0 Z" /></g><g
           transform="translate(150.5091,142.0585)"
           id="g168"><path
             id="path170"
             style="fill:none;stroke:#6b6b6b;stroke-width:2;stroke-linecap:butt;stroke-linejoin:miter;stroke-miterlimit:10;stroke-dasharray:none;stroke-opacity:1"
             d="m 0,0 c 19.162,-19.159 19.162,-50.222 0,-69.382 -19.16,-19.163 -50.225,-19.163 -69.385,0 -19.162,19.158 -19.162,50.222 0,69.382 19.16,19.163 50.223,19.163 69.385,0 z" /></g><g
           transform="translate(328.2413,142.0585)"
           id="g172"><path
             id="path174"
             style="fill:none;stroke:#6b6b6b;stroke-width:2;stroke-linecap:butt;stroke-linejoin:miter;stroke-miterlimit:10;stroke-dasharray:none;stroke-opacity:1"
             d="m 0,0 c 19.162,-19.159 19.162,-50.222 0,-69.382 -19.16,-19.163 -50.225,-19.163 -69.385,0 -19.162,19.158 -19.162,50.222 0,69.382 19.16,19.163 50.223,19.163 69.385,0 z" /></g><g
           transform="translate(861.4382,142.0585)"
           id="g176"><path
             id="path178"
             style="fill:none;stroke:#6b6b6b;stroke-width:2;stroke-linecap:butt;stroke-linejoin:miter;stroke-miterlimit:10;stroke-dasharray:none;stroke-opacity:1"
             d="m 0,0 c 19.162,-19.159 19.162,-50.222 0,-69.382 -19.16,-19.163 -50.225,-19.163 -69.385,0 -19.162,19.158 -19.162,50.222 0,69.382 19.16,19.163 50.223,19.163 69.385,0 z" /></g><g
           transform="translate(634.4703,81.662)"
           id="g180"><path
             id="path182"
             style="fill:none;stroke:#6b6b6b;stroke-width:2;stroke-linecap:butt;stroke-linejoin:miter;stroke-miterlimit:10;stroke-dasharray:none;stroke-opacity:1"
             d="M 0,0 29.086,0" /></g><g
           transform="translate(649.0132,82.6316)"
           id="g184"><path
             id="path186"
             style="fill:none;stroke:#6b6b6b;stroke-width:2;stroke-linecap:butt;stroke-linejoin:miter;stroke-miterlimit:10;stroke-dasharray:none;stroke-opacity:1"
             d="M 0,0 0,10.691" /></g><g
           transform="translate(664.5258,108.8346)"
           id="g188"><path
             id="path190"
             style="fill:none;stroke:#6b6b6b;stroke-width:2;stroke-linecap:butt;stroke-linejoin:miter;stroke-miterlimit:10;stroke-dasharray:none;stroke-opacity:1"
             d="m 0,0 c 0,-7.756 -7.756,-15.512 -15.513,-15.512 -7.756,0 -15.512,7.756 -15.512,15.512" /></g><g
           transform="translate(656.7695,107.865)"
           id="g192"><path
             id="path194"
             style="fill:none;stroke:#6b6b6b;stroke-width:2;stroke-linecap:butt;stroke-linejoin:miter;stroke-miterlimit:10;stroke-dasharray:none;stroke-opacity:1"
             d="m 0,0 c 0,-4.283 -3.473,-7.756 -7.756,-7.756 -4.284,0 -7.757,3.473 -7.757,7.756 l 0,17.452 c 0,4.283 3.473,7.756 7.757,7.756 C -3.473,25.208 0,21.735 0,17.452 L 0,0 Z" /></g><g
           transform="translate(646.1047,121.4385)"
           id="g196"><path
             id="path198"
             style="fill:none;stroke:#6b6b6b;stroke-width:2;stroke-linecap:butt;stroke-linejoin:miter;stroke-miterlimit:10;stroke-dasharray:none;stroke-opacity:1"
             d="M 0,0 -4.848,0" /></g><g
           transform="translate(646.1047,111.7431)"
           id="g200"><path
             id="path202"
             style="fill:none;stroke:#6b6b6b;stroke-width:2;stroke-linecap:butt;stroke-linejoin:miter;stroke-miterlimit:10;stroke-dasharray:none;stroke-opacity:1"
             d="M 0,0 -4.848,0" /></g><g
           transform="translate(656.7695,121.4385)"
           id="g204"><path
             id="path206"
             style="fill:none;stroke:#6b6b6b;stroke-width:2;stroke-linecap:butt;stroke-linejoin:miter;stroke-miterlimit:10;stroke-dasharray:none;stroke-opacity:1"
             d="M 0,0 -4.848,0" /></g><g
           transform="translate(656.7695,111.7431)"
           id="g208"><path
             id="path210"
             style="fill:none;stroke:#6b6b6b;stroke-width:2;stroke-linecap:butt;stroke-linejoin:miter;stroke-miterlimit:10;stroke-dasharray:none;stroke-opacity:1"
             d="M 0,0 -4.848,0" /></g><g
           transform="translate(683.7059,142.0585)"
           id="g212"><path
             id="path214"
             style="fill:none;stroke:#6b6b6b;stroke-width:2;stroke-linecap:butt;stroke-linejoin:miter;stroke-miterlimit:10;stroke-dasharray:none;stroke-opacity:1"
             d="m 0,0 c 19.162,-19.159 19.162,-50.222 0,-69.382 -19.16,-19.163 -50.225,-19.163 -69.385,0 -19.162,19.158 -19.162,50.222 0,69.382 19.16,19.163 50.223,19.163 69.385,0 z" /></g><g
           transform="translate(505.9736,142.0585)"
           id="g216"><path
             id="path218"
             style="fill:none;stroke:#6b6b6b;stroke-width:2;stroke-linecap:butt;stroke-linejoin:miter;stroke-miterlimit:10;stroke-dasharray:none;stroke-opacity:1"
             d="m 0,0 c 19.162,-19.159 19.162,-50.222 0,-69.382 -19.16,-19.163 -50.225,-19.163 -69.385,0 -19.162,19.158 -19.162,50.222 0,69.382 19.16,19.163 50.223,19.163 69.385,0 z" /></g><g
           transform="translate(1209.9626,119.298)"
           id="g220"><path
             id="path222"
             style="fill:none;stroke:#6b6b6b;stroke-width:2;stroke-linecap:round;stroke-linejoin:miter;stroke-miterlimit:10;stroke-dasharray:none;stroke-opacity:1"
             d="M 0,0 -9.041,9.041 -32.902,-14.82 -46.424,-1.299 -55.505,-10.3 -32.902,-32.902 0,0 Z" /></g><g
           transform="translate(1216.9027,142.0585)"
           id="g224"><path
             id="path226"
             style="fill:none;stroke:#6b6b6b;stroke-width:2;stroke-linecap:butt;stroke-linejoin:miter;stroke-miterlimit:10;stroke-dasharray:none;stroke-opacity:1"
             d="m 0,0 c 19.162,-19.159 19.162,-50.222 0,-69.382 -19.16,-19.163 -50.225,-19.163 -69.385,0 -19.162,19.158 -19.162,50.222 0,69.382 19.16,19.163 50.223,19.163 69.385,0 z" /></g></g></g></g></svg>