<?xml version="1.0" encoding="UTF-8" standalone="no"?>
<svg
   xmlns:dc="http://purl.org/dc/elements/1.1/"
   xmlns:cc="http://creativecommons.org/ns#"
   xmlns:rdf="http://www.w3.org/1999/02/22-rdf-syntax-ns#"
   xmlns:svg="http://www.w3.org/2000/svg"
   xmlns="http://www.w3.org/2000/svg"
   viewBox="0 0 396.85333 267.77734"
   height="267.77734"
   width="396.85333"
   xml:space="preserve"
   version="1.1"
   id="svg2"><metadata
     id="metadata8"><rdf:RDF><cc:Work
         rdf:about=""><dc:format>image/svg+xml</dc:format><dc:type
           rdf:resource="http://purl.org/dc/dcmitype/StillImage" /></cc:Work></rdf:RDF></metadata><defs
     id="defs6"><clipPath
       id="clipPath18"
       clipPathUnits="userSpaceOnUse"><path
         id="path20"
         d="m 0,200.833 297.64,0 L 297.64,0 0,0 0,200.833 Z" /></clipPath></defs><g
     transform="matrix(1.3333333,0,0,-1.3333333,0,267.77733)"
     id="g10"><path
       id="path12"
       style="fill:#000000;fill-opacity:1;fill-rule:nonzero;stroke:none"
       d="m 0,0 297.64,0 0,102 L 0,102 0,0 Z" /><g
       id="g14"><g
         clip-path="url(#clipPath18)"
         id="g16"><g
           transform="translate(133.3034,156.0037)"
           id="g22"><path
             id="path24"
             style="fill:#231f20;fill-opacity:1;fill-rule:evenodd;stroke:none"
             d="m 0,0 c -1.077,1.077 -2.566,1.744 -4.211,1.744 -1.644,0 -3.133,-0.667 -4.211,-1.744 -1.077,-1.077 -1.744,-2.566 -1.744,-4.211 0,-1.644 0.667,-3.133 1.744,-4.211 1.078,-1.077 2.567,-1.744 4.211,-1.744 1.645,0 3.134,0.667 4.211,1.744 1.077,1.078 1.744,2.567 1.744,4.211 C 1.744,-2.566 1.077,-1.077 0,0 m -4.211,4.826 c 2.495,0 4.754,-1.012 6.39,-2.647 1.635,-1.636 2.647,-3.895 2.647,-6.39 0,-2.495 -1.012,-4.754 -2.647,-6.39 -1.636,-1.635 -3.895,-2.646 -6.39,-2.646 -2.495,0 -4.754,1.011 -6.39,2.646 -1.635,1.636 -2.646,3.895 -2.646,6.39 0,2.495 1.011,4.754 2.646,6.39 1.636,1.635 3.895,2.647 6.39,2.647" /></g><g
           transform="translate(158.5228,160.8271)"
           id="g26"><path
             id="path28"
             style="fill:#231f20;fill-opacity:1;fill-rule:evenodd;stroke:none"
             d="m 0,0 -6.647,0 -3.076,0 -6.655,0 0,-3.076 6.655,0 0,-14.994 3.076,0 0,14.994 6.647,0 L 0,0 Z" /></g><path
           id="path30"
           style="fill:#231f20;fill-opacity:1;fill-rule:evenodd;stroke:none"
           d="m 168.255,142.758 -3.076,0 0,18.07 3.076,0 0,-18.07 z" /><g
           transform="translate(188.1591,156.0037)"
           id="g32"><path
             id="path34"
             style="fill:#231f20;fill-opacity:1;fill-rule:evenodd;stroke:none"
             d="m 0,0 c -1.078,1.077 -2.566,1.744 -4.211,1.744 -1.644,0 -3.133,-0.667 -4.211,-1.744 -1.077,-1.077 -1.744,-2.566 -1.744,-4.211 0,-1.644 0.667,-3.133 1.744,-4.211 1.078,-1.077 2.567,-1.744 4.211,-1.744 1.645,0 3.133,0.667 4.211,1.744 1.077,1.078 1.744,2.567 1.744,4.211 C 1.744,-2.566 1.077,-1.077 0,0 m -4.211,4.826 c 2.495,0 4.754,-1.012 6.39,-2.647 1.635,-1.636 2.646,-3.895 2.646,-6.39 0,-2.495 -1.011,-4.754 -2.646,-6.39 -1.636,-1.635 -3.895,-2.646 -6.39,-2.646 -2.495,0 -4.754,1.011 -6.39,2.646 -1.635,1.636 -2.646,3.895 -2.646,6.39 0,2.495 1.011,4.754 2.646,6.39 1.636,1.635 3.895,2.647 6.39,2.647" /></g><g
           transform="translate(199.6416,156.6649)"
           id="g36"><path
             id="path38"
             style="fill:#231f20;fill-opacity:1;fill-rule:evenodd;stroke:none"
             d="m 0,0 15.258,-13.907 0,18.069 -3.076,0 0,-11.104 L 0,4.162 0,0 Z m 3.076,-13.907 -3.076,0 0,9.745 3.076,-2.803 0,-6.942 z" /></g><g
           transform="translate(99.6158,149.6994)"
           id="g40"><path
             id="path42"
             style="fill:#231f20;fill-opacity:1;fill-rule:evenodd;stroke:none"
             d="m 0,0 -3.076,2.804 0,-9.746 3.076,0 L 0,0 Z m 5.354,-0.719 -8.43,7.685 0,4.162 8.43,-7.685 8.43,7.685 0,-18.07 -3.075,0 0,11.104 -5.355,-4.881 z" /></g><g
           transform="translate(81.8677,157.196)"
           id="g44"><path
             id="path46"
             style="fill:#0d7f59;fill-opacity:1;fill-rule:evenodd;stroke:none"
             d="m 0,0 c -0.335,0.335 -0.799,0.543 -1.311,0.543 -0.512,0 -0.976,-0.208 -1.311,-0.543 -0.335,-0.335 -0.543,-0.799 -0.543,-1.311 0,-0.512 0.208,-0.976 0.543,-1.311 0.335,-0.335 0.799,-0.543 1.311,-0.543 0.512,0 0.976,0.208 1.311,0.543 0.335,0.335 0.543,0.799 0.543,1.311 C 0.543,-0.799 0.335,-0.335 0,0 m 0.493,-6.994 c -0.461,0.462 -1.099,0.747 -1.804,0.747 -0.705,0 -1.343,-0.285 -1.804,-0.747 -0.462,-0.462 -0.748,-1.1 -0.748,-1.804 0,-0.705 0.286,-1.343 0.748,-1.805 0.461,-0.461 1.099,-0.747 1.804,-0.747 0.705,0 1.343,0.286 1.804,0.747 0.462,0.462 0.747,1.1 0.747,1.805 0,0.704 -0.285,1.342 -0.747,1.804 M -1.311,3.624 c 1.363,0 2.597,-0.552 3.49,-1.445 0.893,-0.893 1.445,-2.127 1.445,-3.49 0,-1.245 -0.461,-2.383 -1.222,-3.251 0.093,-0.082 0.183,-0.166 0.27,-0.253 1.019,-1.02 1.65,-2.428 1.65,-3.983 0,-1.556 -0.631,-2.964 -1.65,-3.983 -1.019,-1.02 -2.428,-1.65 -3.983,-1.65 -1.556,0 -2.964,0.63 -3.983,1.65 -1.02,1.019 -1.65,2.427 -1.65,3.983 0,1.555 0.63,2.963 1.65,3.983 0.087,0.087 0.177,0.171 0.27,0.253 -0.761,0.868 -1.222,2.006 -1.222,3.251 0,1.363 0.552,2.597 1.445,3.49 0.893,0.893 2.127,1.445 3.49,1.445" /></g><g
           transform="translate(63.0327,170.857)"
           id="g48"><path
             id="path50"
             style="fill:#231f20;fill-opacity:1;fill-rule:evenodd;stroke:none"
             d="m 0,0 163.759,0 1.54,0 0,-1.541 0,-35.048 0,-1.54 -1.54,0 -163.759,0 -1.541,0 0,1.54 0,35.048 0,1.541 L 0,0 Z m 162.218,-3.082 -160.677,0 0,-31.966 160.677,0 0,31.966 z" /></g><g
           transform="translate(133.3034,54.7334)"
           id="g52"><path
             id="path54"
             style="fill:#ffffff;fill-opacity:1;fill-rule:evenodd;stroke:none"
             d="m 0,0 c -1.077,1.077 -2.566,1.744 -4.211,1.744 -1.644,0 -3.133,-0.667 -4.211,-1.744 -1.077,-1.077 -1.744,-2.566 -1.744,-4.211 0,-1.644 0.667,-3.133 1.744,-4.211 1.078,-1.077 2.567,-1.744 4.211,-1.744 1.645,0 3.134,0.667 4.211,1.744 1.077,1.078 1.744,2.567 1.744,4.211 C 1.744,-2.566 1.077,-1.077 0,0 m -4.211,4.826 c 2.495,0 4.754,-1.012 6.39,-2.647 1.635,-1.636 2.647,-3.895 2.647,-6.39 0,-2.495 -1.012,-4.754 -2.647,-6.39 -1.636,-1.635 -3.895,-2.646 -6.39,-2.646 -2.495,0 -4.754,1.011 -6.39,2.646 -1.635,1.636 -2.646,3.895 -2.646,6.39 0,2.495 1.011,4.754 2.646,6.39 1.636,1.635 3.895,2.647 6.39,2.647" /></g><g
           transform="translate(158.5228,59.5567)"
           id="g56"><path
             id="path58"
             style="fill:#ffffff;fill-opacity:1;fill-rule:evenodd;stroke:none"
             d="m 0,0 -6.647,0 -3.076,0 -6.655,0 0,-3.076 6.655,0 0,-14.994 3.076,0 0,14.994 6.647,0 L 0,0 Z" /></g><path
           id="path60"
           style="fill:#ffffff;fill-opacity:1;fill-rule:evenodd;stroke:none"
           d="m 168.255,41.487 -3.076,0 0,18.07 3.076,0 0,-18.07 z" /><g
           transform="translate(188.1591,54.7334)"
           id="g62"><path
             id="path64"
             style="fill:#ffffff;fill-opacity:1;fill-rule:evenodd;stroke:none"
             d="m 0,0 c -1.078,1.077 -2.566,1.744 -4.211,1.744 -1.644,0 -3.133,-0.667 -4.211,-1.744 -1.077,-1.077 -1.744,-2.566 -1.744,-4.211 0,-1.644 0.667,-3.133 1.744,-4.211 1.078,-1.077 2.567,-1.744 4.211,-1.744 1.645,0 3.133,0.667 4.211,1.744 1.077,1.078 1.744,2.567 1.744,4.211 C 1.744,-2.566 1.077,-1.077 0,0 m -4.211,4.826 c 2.495,0 4.754,-1.012 6.39,-2.647 1.635,-1.636 2.646,-3.895 2.646,-6.39 0,-2.495 -1.011,-4.754 -2.646,-6.39 -1.636,-1.635 -3.895,-2.646 -6.39,-2.646 -2.495,0 -4.754,1.011 -6.39,2.646 -1.635,1.636 -2.646,3.895 -2.646,6.39 0,2.495 1.011,4.754 2.646,6.39 1.636,1.635 3.895,2.647 6.39,2.647" /></g><g
           transform="translate(199.6416,55.3945)"
           id="g66"><path
             id="path68"
             style="fill:#ffffff;fill-opacity:1;fill-rule:evenodd;stroke:none"
             d="m 0,0 15.258,-13.907 0,18.069 -3.076,0 0,-11.104 L 0,4.162 0,0 Z m 3.076,-13.907 -3.076,0 0,9.745 3.076,-2.803 0,-6.942 z" /></g><g
           transform="translate(99.6158,48.429)"
           id="g70"><path
             id="path72"
             style="fill:#ffffff;fill-opacity:1;fill-rule:evenodd;stroke:none"
             d="m 0,0 -3.076,2.804 0,-9.746 3.076,0 L 0,0 Z m 5.354,-0.719 -8.43,7.685 0,4.162 8.43,-7.685 8.43,7.685 0,-18.07 -3.075,0 0,11.104 -5.355,-4.881 z" /></g><g
           transform="translate(81.8677,55.9256)"
           id="g74"><path
             id="path76"
             style="fill:#0d7f59;fill-opacity:1;fill-rule:evenodd;stroke:none"
             d="m 0,0 c -0.335,0.335 -0.799,0.543 -1.311,0.543 -0.512,0 -0.976,-0.208 -1.311,-0.543 -0.335,-0.335 -0.543,-0.799 -0.543,-1.311 0,-0.512 0.208,-0.976 0.543,-1.311 0.335,-0.335 0.799,-0.543 1.311,-0.543 0.512,0 0.976,0.208 1.311,0.543 0.335,0.335 0.543,0.799 0.543,1.311 C 0.543,-0.799 0.335,-0.335 0,0 m 0.493,-6.994 c -0.461,0.462 -1.099,0.747 -1.804,0.747 -0.705,0 -1.343,-0.285 -1.804,-0.747 -0.462,-0.462 -0.748,-1.1 -0.748,-1.804 0,-0.705 0.286,-1.343 0.748,-1.805 0.461,-0.461 1.099,-0.747 1.804,-0.747 0.705,0 1.343,0.286 1.804,0.747 0.462,0.462 0.747,1.1 0.747,1.805 0,0.704 -0.285,1.342 -0.747,1.804 M -1.311,3.624 c 1.363,0 2.597,-0.552 3.49,-1.445 0.893,-0.893 1.445,-2.127 1.445,-3.49 0,-1.245 -0.461,-2.383 -1.222,-3.251 0.093,-0.082 0.183,-0.166 0.27,-0.253 1.019,-1.02 1.65,-2.428 1.65,-3.983 0,-1.556 -0.631,-2.964 -1.65,-3.983 -1.019,-1.02 -2.428,-1.65 -3.983,-1.65 -1.556,0 -2.964,0.63 -3.983,1.65 -1.02,1.019 -1.65,2.427 -1.65,3.983 0,1.555 0.63,2.963 1.65,3.983 0.087,0.087 0.177,0.171 0.27,0.253 -0.761,0.868 -1.222,2.006 -1.222,3.251 0,1.363 0.552,2.597 1.445,3.49 0.893,0.893 2.127,1.445 3.49,1.445" /></g><g
           transform="translate(63.0327,69.5866)"
           id="g78"><path
             id="path80"
             style="fill:#ffffff;fill-opacity:1;fill-rule:evenodd;stroke:none"
             d="m 0,0 163.759,0 1.54,0 0,-1.541 0,-35.048 0,-1.54 -1.54,0 -163.759,0 -1.541,0 0,1.54 0,35.048 0,1.541 L 0,0 Z m 162.218,-3.082 -160.677,0 0,-31.966 160.677,0 0,31.966 z" /></g></g></g></g></svg>