<?xml version="1.0" encoding="UTF-8" standalone="no"?>
<svg
   xmlns:dc="http://purl.org/dc/elements/1.1/"
   xmlns:cc="http://creativecommons.org/ns#"
   xmlns:rdf="http://www.w3.org/1999/02/22-rdf-syntax-ns#"
   xmlns:svg="http://www.w3.org/2000/svg"
   xmlns="http://www.w3.org/2000/svg"
   viewBox="0 0 376.66666 140"
   height="140"
   width="376.66666"
   xml:space="preserve"
   version="1.1"
   id="svg2"><metadata
     id="metadata8"><rdf:RDF><cc:Work
         rdf:about=""><dc:format>image/svg+xml</dc:format><dc:type
           rdf:resource="http://purl.org/dc/dcmitype/StillImage" /></cc:Work></rdf:RDF></metadata><defs
     id="defs6"><clipPath
       id="clipPath16"
       clipPathUnits="userSpaceOnUse"><path
         id="path18"
         d="m 0,105 282.5,0 0,-105 L 0,0 0,105 Z" /></clipPath></defs><g
     transform="matrix(1.3333333,0,0,-1.3333333,0,140)"
     id="g10"><g
       id="g12"><g
         clip-path="url(#clipPath16)"
         id="g14"><g
           transform="translate(154.0462,55.7255)"
           id="g20"><path
             id="path22"
             style="fill:none;stroke:#3f4244;stroke-width:1;stroke-linecap:round;stroke-linejoin:miter;stroke-miterlimit:10;stroke-dasharray:none;stroke-opacity:1"
             d="m 0,0 0,-21.524 c 0,-1.393 -1.129,-2.522 -2.522,-2.522 l -43.048,0 c -1.393,0 -2.522,1.129 -2.522,2.522 l 0,23.656 c 0,1.393 1.129,2.522 2.522,2.522 l 43.048,0 C -1.129,4.654 0,3.525 0,2.132 L 0,0" /></g><g
           transform="translate(107.5051,59.604)"
           id="g24"><path
             id="path26"
             style="fill:none;stroke:#3f4244;stroke-width:1;stroke-linecap:round;stroke-linejoin:miter;stroke-miterlimit:10;stroke-dasharray:none;stroke-opacity:1"
             d="m 0,0 21.127,-13.856 c 0.833,-0.537 1.903,-0.537 2.735,0 L 44.99,0" /></g></g></g></g></svg>