<?xml version="1.0" encoding="UTF-8" standalone="no"?>
<svg
   xmlns:dc="http://purl.org/dc/elements/1.1/"
   xmlns:cc="http://creativecommons.org/ns#"
   xmlns:rdf="http://www.w3.org/1999/02/22-rdf-syntax-ns#"
   xmlns:svg="http://www.w3.org/2000/svg"
   xmlns="http://www.w3.org/2000/svg"
   viewBox="0 0 376.66666 140"
   height="140"
   width="376.66666"
   xml:space="preserve"
   version="1.1"
   id="svg2"><metadata
     id="metadata8"><rdf:RDF><cc:Work
         rdf:about=""><dc:format>image/svg+xml</dc:format><dc:type
           rdf:resource="http://purl.org/dc/dcmitype/StillImage" /></cc:Work></rdf:RDF></metadata><defs
     id="defs6"><clipPath
       id="clipPath16"
       clipPathUnits="userSpaceOnUse"><path
         id="path18"
         d="m 0,105 282.5,0 0,-105 L 0,0 0,105 Z" /></clipPath></defs><g
     transform="matrix(1.3333333,0,0,-1.3333333,0,140)"
     id="g10"><g
       id="g12"><g
         clip-path="url(#clipPath16)"
         id="g14"><g
           transform="translate(55.9208,23.7057)"
           id="g20"><path
             id="path22"
             style="fill:none;stroke:#3f4244;stroke-width:1;stroke-linecap:round;stroke-linejoin:miter;stroke-miterlimit:10;stroke-dasharray:none;stroke-opacity:1"
             d="m 0,0 -9.982,0 c -4.482,0 -8.116,3.634 -8.116,8.116 l 0,30.953 c 0,4.483 3.634,8.117 8.116,8.117 l 9.982,0 c 4.482,0 8.116,-3.634 8.116,-8.117 l 0,-30.953 C 8.116,3.634 4.482,0 0,0 Z" /></g><g
           transform="translate(37.8797,62.3888)"
           id="g24"><path
             id="path26"
             style="fill:none;stroke:#3f4244;stroke-width:1;stroke-linecap:round;stroke-linejoin:miter;stroke-miterlimit:10;stroke-dasharray:none;stroke-opacity:1"
             d="M 0,0 26.1,0" /></g><g
           transform="translate(47.5983,66.7983)"
           id="g28"><path
             id="path30"
             style="fill:none;stroke:#3f4244;stroke-width:1;stroke-linecap:round;stroke-linejoin:miter;stroke-miterlimit:10;stroke-dasharray:none;stroke-opacity:1"
             d="M 0,0 6.663,0" /></g><g
           transform="translate(37.8797,32.3062)"
           id="g32"><path
             id="path34"
             style="fill:none;stroke:#3f4244;stroke-width:1;stroke-linecap:round;stroke-linejoin:miter;stroke-miterlimit:10;stroke-dasharray:none;stroke-opacity:1"
             d="M 0,0 26.1,0" /></g><g
           transform="translate(49.6071,27.6762)"
           id="g36"><path
             id="path38"
             style="fill:none;stroke:#3f4244;stroke-width:1;stroke-linecap:round;stroke-linejoin:miter;stroke-miterlimit:10;stroke-dasharray:none;stroke-opacity:1"
             d="M 0,0 2.646,0" /></g></g></g></g></svg>