<?xml version="1.0" encoding="UTF-8" standalone="no"?>
<svg
   xmlns:dc="http://purl.org/dc/elements/1.1/"
   xmlns:cc="http://creativecommons.org/ns#"
   xmlns:rdf="http://www.w3.org/1999/02/22-rdf-syntax-ns#"
   xmlns:svg="http://www.w3.org/2000/svg"
   xmlns="http://www.w3.org/2000/svg"
   viewBox="0 0 567.33331 275.33334"
   height="275.33334"
   width="567.33331"
   xml:space="preserve"
   version="1.1"
   id="svg2"><metadata
     id="metadata8"><rdf:RDF><cc:Work
         rdf:about=""><dc:format>image/svg+xml</dc:format><dc:type
           rdf:resource="http://purl.org/dc/dcmitype/StillImage" /></cc:Work></rdf:RDF></metadata><defs
     id="defs6"><clipPath
       id="clipPath16"
       clipPathUnits="userSpaceOnUse"><path
         id="path18"
         d="m 0,206.5 425.5,0 L 425.5,0 0,0 0,206.5 Z" /></clipPath></defs><g
     transform="matrix(1.3333333,0,0,-1.3333333,0,275.33333)"
     id="g10"><g
       id="g12"><g
         clip-path="url(#clipPath16)"
         id="g14"><g
           transform="translate(359.2453,106.9011)"
           id="g20"><path
             id="path22"
             style="fill:none;stroke:#68c39d;stroke-width:2;stroke-linecap:round;stroke-linejoin:miter;stroke-miterlimit:10;stroke-dasharray:none;stroke-opacity:1"
             d="m 0,0 0,-29.214 c 0,-2.957 -2.419,-5.377 -5.377,-5.377 l -51.082,0 c -2.957,0 -5.377,2.42 -5.377,5.377 l 0,29.214" /></g><g
           transform="translate(356.9161,104.5719)"
           id="g24"><path
             id="path26"
             style="fill:none;stroke:#68c39d;stroke-width:2;stroke-linecap:round;stroke-linejoin:miter;stroke-miterlimit:10;stroke-dasharray:none;stroke-opacity:1"
             d="m 0,0 -57.177,0 c -1.287,0 -2.33,1.043 -2.33,2.329 l 0,6.096 c 0,1.286 1.043,2.329 2.33,2.329 l 57.177,0 c 1.286,0 2.329,-1.043 2.329,-2.329 l 0,-6.096 C 2.329,1.043 1.286,0 0,0 Z" /></g><g
           transform="translate(298.3488,114.8566)"
           id="g28"><path
             id="path30"
             style="fill:none;stroke:#68c39d;stroke-width:2;stroke-linecap:round;stroke-linejoin:miter;stroke-miterlimit:10;stroke-dasharray:none;stroke-opacity:1"
             d="M 0,0 9.812,-10.282" /></g><g
           transform="translate(314.8848,115.3289)"
           id="g32"><path
             id="path34"
             style="fill:none;stroke:#68c39d;stroke-width:2;stroke-linecap:round;stroke-linejoin:miter;stroke-miterlimit:10;stroke-dasharray:none;stroke-opacity:1"
             d="M 0,0 10.754,-10.754" /></g><g
           transform="translate(331.0159,115.3289)"
           id="g36"><path
             id="path38"
             style="fill:none;stroke:#68c39d;stroke-width:2;stroke-linecap:round;stroke-linejoin:miter;stroke-miterlimit:10;stroke-dasharray:none;stroke-opacity:1"
             d="M 0,0 10.754,-10.754" /></g><g
           transform="translate(348.4912,115.3289)"
           id="g40"><path
             id="path42"
             style="fill:none;stroke:#68c39d;stroke-width:2;stroke-linecap:round;stroke-linejoin:miter;stroke-miterlimit:10;stroke-dasharray:none;stroke-opacity:1"
             d="M 0,0 10.754,-10.754" /></g><g
           transform="translate(357.2345,123.3333)"
           id="g44"><path
             id="path46"
             style="fill:none;stroke:#68c39d;stroke-width:2;stroke-linecap:round;stroke-linejoin:miter;stroke-miterlimit:10;stroke-dasharray:none;stroke-opacity:1"
             d="m 0,0 -56.856,-5.137 c -1.111,-0.1 -2.094,0.72 -2.194,1.832 l -0.592,6.609 c -0.1,1.11 0.72,2.092 1.831,2.192 L -0.956,10.63 C 0.156,10.731 1.139,9.911 1.238,8.799 L 1.831,2.193 C 1.93,1.082 1.111,0.1 0,0 Z" /></g><g
           transform="translate(299.6148,126.8007)"
           id="g48"><path
             id="path50"
             style="fill:none;stroke:#68c39d;stroke-width:2;stroke-linecap:round;stroke-linejoin:miter;stroke-miterlimit:10;stroke-dasharray:none;stroke-opacity:1"
             d="M 0,0 9.335,-7.828" /></g><g
           transform="translate(314.6171,130.2046)"
           id="g52"><path
             id="path54"
             style="fill:none;stroke:#68c39d;stroke-width:2;stroke-linecap:round;stroke-linejoin:miter;stroke-miterlimit:10;stroke-dasharray:none;stroke-opacity:1"
             d="M 0,0 11.54,-9.678" /></g><g
           transform="translate(330.4988,131.6381)"
           id="g56"><path
             id="path58"
             style="fill:none;stroke:#68c39d;stroke-width:2;stroke-linecap:round;stroke-linejoin:miter;stroke-miterlimit:10;stroke-dasharray:none;stroke-opacity:1"
             d="M 0,0 11.54,-9.675" /></g><g
           transform="translate(347.7036,133.1925)"
           id="g60"><path
             id="path62"
             style="fill:none;stroke:#68c39d;stroke-width:2;stroke-linecap:round;stroke-linejoin:miter;stroke-miterlimit:10;stroke-dasharray:none;stroke-opacity:1"
             d="M 0,0 10.054,-8.428" /></g><g
           transform="translate(308.1635,93.8179)"
           id="g64"><path
             id="path66"
             style="fill:none;stroke:#68c39d;stroke-width:2;stroke-linecap:round;stroke-linejoin:miter;stroke-miterlimit:10;stroke-dasharray:none;stroke-opacity:1"
             d="M 0,0 40.328,0" /></g><g
           transform="translate(308.1635,85.7523)"
           id="g68"><path
             id="path70"
             style="fill:none;stroke:#68c39d;stroke-width:2;stroke-linecap:round;stroke-linejoin:miter;stroke-miterlimit:10;stroke-dasharray:none;stroke-opacity:1"
             d="M 0,0 40.328,0" /></g><g
           transform="translate(130.4375,119.9384)"
           id="g72"><path
             id="path74"
             style="fill:none;stroke:#68c39d;stroke-width:2;stroke-linecap:round;stroke-linejoin:miter;stroke-miterlimit:10;stroke-dasharray:none;stroke-opacity:1"
             d="M 0,0 -59.829,0" /></g><g
           transform="translate(94.0198,75.717)"
           id="g76"><path
             id="path78"
             style="fill:none;stroke:#68c39d;stroke-width:2;stroke-linecap:round;stroke-linejoin:miter;stroke-miterlimit:10;stroke-dasharray:none;stroke-opacity:1"
             d="M 0,0 0,10.405" /></g><g
           transform="translate(107.0261,75.717)"
           id="g80"><path
             id="path82"
             style="fill:none;stroke:#68c39d;stroke-width:2;stroke-linecap:round;stroke-linejoin:miter;stroke-miterlimit:10;stroke-dasharray:none;stroke-opacity:1"
             d="M 0,0 0,10.405" /></g><g
           transform="translate(81.0134,75.717)"
           id="g84"><path
             id="path86"
             style="fill:none;stroke:#68c39d;stroke-width:2;stroke-linecap:round;stroke-linejoin:miter;stroke-miterlimit:10;stroke-dasharray:none;stroke-opacity:1"
             d="M 0,0 0,10.405" /></g><g
           transform="translate(120.0324,75.717)"
           id="g88"><path
             id="path90"
             style="fill:none;stroke:#68c39d;stroke-width:2;stroke-linecap:round;stroke-linejoin:miter;stroke-miterlimit:10;stroke-dasharray:none;stroke-opacity:1"
             d="M 0,0 0,10.405" /></g><g
           transform="translate(70.6084,76.993)"
           id="g92"><path
             id="path94"
             style="fill:none;stroke:#68c39d;stroke-width:2;stroke-linecap:round;stroke-linejoin:miter;stroke-miterlimit:10;stroke-dasharray:none;stroke-opacity:1"
             d="m 0,0 0,7.853 c 0,0.705 0.571,1.276 1.276,1.276 l 57.277,0 c 0.705,0 1.276,-0.571 1.276,-1.276 l 0,-7.853 c 0,-0.705 -0.571,-1.276 -1.276,-1.276 l -57.277,0 C 0.571,-1.276 0,-0.705 0,0 Z" /></g><path
           id="path96"
           style="fill:none;stroke:#68c39d;stroke-width:2;stroke-linecap:round;stroke-linejoin:miter;stroke-miterlimit:10;stroke-dasharray:none;stroke-opacity:1"
           d="m 70.608,119.938 59.829,0 0,-33.816 -59.829,0 0,33.816 z" /><g
           transform="translate(70.6087,119.9384)"
           id="g98"><path
             id="path100"
             style="fill:none;stroke:#68c39d;stroke-width:2;stroke-linecap:round;stroke-linejoin:miter;stroke-miterlimit:10;stroke-dasharray:none;stroke-opacity:1"
             d="M 0,0 0,6.933" /></g><g
           transform="translate(130.4376,128.5123)"
           id="g102"><path
             id="path104"
             style="fill:none;stroke:#68c39d;stroke-width:2;stroke-linecap:round;stroke-linejoin:miter;stroke-miterlimit:10;stroke-dasharray:none;stroke-opacity:1"
             d="M 0,0 0,-8.574" /></g><g
           transform="translate(94.0198,98.0522)"
           id="g106"><path
             id="path108"
             style="fill:none;stroke:#68c39d;stroke-width:2;stroke-linecap:round;stroke-linejoin:miter;stroke-miterlimit:10;stroke-dasharray:none;stroke-opacity:1"
             d="m 0,0 0,9.956 c 0,0.701 0.737,1.157 1.364,0.843 L 11.32,5.821 c 0.695,-0.347 0.695,-1.339 0,-1.686 L 1.364,-0.843 C 0.737,-1.156 0,-0.701 0,0 Z" /></g><g
           transform="translate(94.0198,120.1919)"
           id="g110"><path
             id="path112"
             style="fill:none;stroke:#68c39d;stroke-width:2;stroke-linecap:round;stroke-linejoin:miter;stroke-miterlimit:10;stroke-dasharray:none;stroke-opacity:1"
             d="M 0,0 0,10.405" /></g><g
           transform="translate(107.0261,120.1919)"
           id="g114"><path
             id="path116"
             style="fill:none;stroke:#68c39d;stroke-width:2;stroke-linecap:round;stroke-linejoin:miter;stroke-miterlimit:10;stroke-dasharray:none;stroke-opacity:1"
             d="M 0,0 0,10.405" /></g><g
           transform="translate(81.0134,120.1919)"
           id="g118"><path
             id="path120"
             style="fill:none;stroke:#68c39d;stroke-width:2;stroke-linecap:round;stroke-linejoin:miter;stroke-miterlimit:10;stroke-dasharray:none;stroke-opacity:1"
             d="M 0,0 0,10.405" /></g><g
           transform="translate(120.0324,120.1919)"
           id="g122"><path
             id="path124"
             style="fill:none;stroke:#68c39d;stroke-width:2;stroke-linecap:round;stroke-linejoin:miter;stroke-miterlimit:10;stroke-dasharray:none;stroke-opacity:1"
             d="M 0,0 0,10.405" /></g><g
           transform="translate(70.6084,121.4679)"
           id="g126"><path
             id="path128"
             style="fill:none;stroke:#68c39d;stroke-width:2;stroke-linecap:round;stroke-linejoin:miter;stroke-miterlimit:10;stroke-dasharray:none;stroke-opacity:1"
             d="m 0,0 0,7.853 c 0,0.705 0.571,1.276 1.276,1.276 l 57.277,0 c 0.705,0 1.276,-0.571 1.276,-1.276 l 0,-7.853 c 0,-0.705 -0.571,-1.276 -1.276,-1.276 l -57.277,0 C 0.571,-1.276 0,-0.705 0,0 Z" /></g><g
           transform="translate(203.7975,129.2989)"
           id="g130"><path
             id="path132"
             style="fill:none;stroke:#68c39d;stroke-width:2;stroke-linecap:round;stroke-linejoin:miter;stroke-miterlimit:10;stroke-dasharray:none;stroke-opacity:1"
             d="m 0,0 10.329,-7.767 -23.058,0 c -4.092,0 -7.42,-3.322 -7.42,-7.406 l 0,-28.388 c 0,-4.084 3.328,-7.406 7.42,-7.406 l 46.994,0 c 4.092,0 7.42,3.322 7.42,7.406 l 0,28.388 c 0,4.084 -3.328,7.406 -7.42,7.406 l -23.936,0 17.39,13.938" /></g><g
           transform="translate(209.0002,84.5034)"
           id="g134"><path
             id="path136"
             style="fill:none;stroke:#68c39d;stroke-width:2;stroke-linecap:round;stroke-linejoin:miter;stroke-miterlimit:10;stroke-dasharray:none;stroke-opacity:1"
             d="m 0,0 c -17.721,0 -19.169,0 -19.169,15.428 0,15.429 1.448,15.429 19.169,15.429 17.721,0 19.169,0 19.169,-15.429 C 19.169,0 17.721,0 0,0 Z" /></g><g
           transform="translate(239.2991,105.4861)"
           id="g138"><path
             id="path140"
             style="fill:none;stroke:#68c39d;stroke-width:2;stroke-linecap:round;stroke-linejoin:miter;stroke-miterlimit:10;stroke-dasharray:none;stroke-opacity:1"
             d="m 0,0 c 0,-1.364 -1.107,-2.469 -2.473,-2.469 -1.367,0 -2.474,1.105 -2.474,2.469 0,1.364 1.107,2.468 2.474,2.468 C -1.107,2.468 0,1.364 0,0 Z" /></g><g
           transform="translate(239.2991,94.3776)"
           id="g142"><path
             id="path144"
             style="fill:none;stroke:#68c39d;stroke-width:2;stroke-linecap:round;stroke-linejoin:miter;stroke-miterlimit:10;stroke-dasharray:none;stroke-opacity:1"
             d="m 0,0 c 0,-1.364 -1.107,-2.469 -2.473,-2.469 -1.367,0 -2.474,1.105 -2.474,2.469 0,1.364 1.107,2.469 2.474,2.469 C -1.107,2.469 0,1.364 0,0 Z" /></g></g></g></g></svg>