<?xml version="1.0" encoding="UTF-8" standalone="no"?>
<svg
   xmlns:dc="http://purl.org/dc/elements/1.1/"
   xmlns:cc="http://creativecommons.org/ns#"
   xmlns:rdf="http://www.w3.org/1999/02/22-rdf-syntax-ns#"
   xmlns:svg="http://www.w3.org/2000/svg"
   xmlns="http://www.w3.org/2000/svg"
   viewBox="0 0 376.66666 140"
   height="140"
   width="376.66666"
   xml:space="preserve"
   version="1.1"
   id="svg2"><metadata
     id="metadata8"><rdf:RDF><cc:Work
         rdf:about=""><dc:format>image/svg+xml</dc:format><dc:type
           rdf:resource="http://purl.org/dc/dcmitype/StillImage" /></cc:Work></rdf:RDF></metadata><defs
     id="defs6"><clipPath
       id="clipPath16"
       clipPathUnits="userSpaceOnUse"><path
         id="path18"
         d="m 0,105 282.5,0 0,-105 L 0,0 0,105 Z" /></clipPath></defs><g
     transform="matrix(1.3333333,0,0,-1.3333333,0,140)"
     id="g10"><g
       id="g12"><g
         clip-path="url(#clipPath16)"
         id="g14"><g
           transform="translate(229.7525,46.9977)"
           id="g20"><path
             id="path22"
             style="fill:none;stroke:#3f4244;stroke-width:1;stroke-linecap:butt;stroke-linejoin:miter;stroke-miterlimit:10;stroke-dasharray:none;stroke-opacity:1"
             d="m 0,0 c -1.015,0.508 -2.06,0.938 -3.155,1.225 -2.011,0.526 -4.034,1.002 -6.048,1.516 -0.858,0.219 -1.689,0.53 -2.391,1.088 -1.065,0.848 -1.104,2.122 -0.105,3.048 0.56,0.519 1.236,0.827 1.974,1.006 0.822,0.198 1.657,0.171 2.496,0.174 1.839,0.006 3.133,-0.855 4.041,-2.401 0.286,-0.487 0.591,-0.963 0.908,-1.43 0.665,-0.982 1.649,-1.15 2.706,-0.935 1.015,0.206 1.684,0.891 1.957,1.873 0.226,0.809 0.059,1.62 -0.292,2.379 -0.715,1.552 -1.946,2.586 -3.432,3.344 -1.942,0.99 -4.036,1.275 -6.185,1.217 -0.543,0 -1.089,0.04 -1.627,-0.008 -2.329,-0.202 -4.578,-0.692 -6.448,-2.206 -2.118,-1.717 -2.855,-3.955 -2.241,-6.603 0.528,-2.282 2.167,-3.588 4.185,-4.487 1.951,-0.87 4.034,-1.309 6.11,-1.772 1.45,-0.324 2.941,-0.569 4.183,-1.489 1.286,-0.953 1.475,-2.665 0.427,-3.875 -0.391,-0.451 -0.87,-0.79 -1.412,-1.035 -1.401,-0.634 -2.865,-0.742 -4.378,-0.576 -1.85,0.203 -3.151,1.14 -3.959,2.797 -0.247,0.507 -0.478,1.025 -0.754,1.517 -0.441,0.783 -1.059,1.351 -1.999,1.462 -2.176,0.256 -3.585,-1.376 -2.967,-3.56 0.87,-3.08 3.057,-4.916 6.023,-5.809 3.257,-0.98 6.565,-0.949 9.836,-0.007 1.745,0.502 3.281,1.391 4.5,2.779 C 4.378,-8.008 4.714,-2.364 0,0 Z" /></g><g
           transform="translate(232.778,25.9203)"
           id="g24"><path
             id="path26"
             style="fill:none;stroke:#3f4244;stroke-width:1;stroke-linecap:butt;stroke-linejoin:miter;stroke-miterlimit:10;stroke-dasharray:none;stroke-opacity:1"
             d="m 0,0 c -2.222,-0.354 -4.426,-0.102 -6.48,0.933 -0.295,0.149 -0.574,0.205 -0.907,0.153 -10.865,-1.7 -20.842,5.942 -21.981,16.835 -0.068,0.652 -0.079,1.31 -0.115,1.917 0.048,1.089 0.067,2.134 0.277,3.155 0.103,0.498 0.032,0.902 -0.198,1.351 -2.182,4.257 -1.325,9.484 2.081,12.829 3.458,3.396 8.66,4.177 12.913,1.905 0.529,-0.282 1.017,-0.374 1.607,-0.295 C -2.739,40.144 6.731,33.097 8.386,23.046 8.761,20.766 8.745,18.497 8.287,16.234 8.224,15.924 8.277,15.666 8.397,15.387 11.311,8.624 7.264,1.158 0,0 Z" /></g></g></g></g></svg>