<?xml version="1.0" encoding="UTF-8" standalone="no"?>
<svg
   xmlns:dc="http://purl.org/dc/elements/1.1/"
   xmlns:cc="http://creativecommons.org/ns#"
   xmlns:rdf="http://www.w3.org/1999/02/22-rdf-syntax-ns#"
   xmlns:svg="http://www.w3.org/2000/svg"
   xmlns="http://www.w3.org/2000/svg"
   viewBox="0 0 517.2973 199.088"
   height="199.088"
   width="517.2973"
   xml:space="preserve"
   version="1.1"
   id="svg2"><metadata
     id="metadata8"><rdf:RDF><cc:Work
         rdf:about=""><dc:format>image/svg+xml</dc:format><dc:type
           rdf:resource="http://purl.org/dc/dcmitype/StillImage" /></cc:Work></rdf:RDF></metadata><defs
     id="defs6"><clipPath
       id="clipPath16"
       clipPathUnits="userSpaceOnUse"><path
         id="path18"
         d="m 0,149.316 387.973,0 L 387.973,0 0,0 0,149.316 Z" /></clipPath></defs><g
     transform="matrix(1.3333333,0,0,-1.3333333,0,199.088)"
     id="g10"><g
       id="g12"><g
         clip-path="url(#clipPath16)"
         id="g14"><g
           transform="translate(95.5713,59.9922)"
           id="g20"><path
             id="path22"
             style="fill:none;stroke:#ffffff;stroke-width:2;stroke-linecap:butt;stroke-linejoin:miter;stroke-miterlimit:10;stroke-dasharray:none;stroke-opacity:1"
             d="m 0,0 c 10.091,0 18.272,8.18 18.272,18.271 0,10.091 -8.181,18.272 -18.272,18.272 -10.091,0 -18.271,-8.181 -18.271,-18.272 C -18.271,8.18 -10.091,0 0,0" /></g><g
           transform="translate(91.1635,81.3574)"
           id="g24"><path
             id="path26"
             style="fill:#ffffff;fill-opacity:1;fill-rule:nonzero;stroke:none"
             d="m 0,0 1.889,0 0,1.836 c 0,0.809 0.02,2.058 0.608,2.831 0.62,0.819 1.47,1.375 2.933,1.375 2.383,0 3.386,-0.34 3.386,-0.34 L 8.344,2.904 c 0,0 -0.787,0.228 -1.522,0.228 C 6.088,3.132 5.43,2.868 5.43,2.134 l 0,-2.134 3.012,0 -0.21,-2.734 -2.802,0 0,-9.496 -3.541,0 0,9.496 L 0,-2.734 0,0 Z" /></g><g
           transform="translate(235.3091,59.9922)"
           id="g28"><path
             id="path30"
             style="fill:none;stroke:#ffffff;stroke-width:2;stroke-linecap:butt;stroke-linejoin:miter;stroke-miterlimit:10;stroke-dasharray:none;stroke-opacity:1"
             d="m 0,0 c 10.091,0 18.272,8.181 18.272,18.272 0,10.09 -8.181,18.271 -18.272,18.271 -10.091,0 -18.271,-8.181 -18.271,-18.271 C -18.271,8.181 -10.091,0 0,0" /></g><g
           transform="translate(244.4453,74.9972)"
           id="g32"><path
             id="path34"
             style="fill:#ffffff;fill-opacity:1;fill-rule:nonzero;stroke:none"
             d="m 0,0 0,6.533 c 0,0 0,3.149 -3.149,3.149 l -11.975,0 c 0,0 -3.147,0 -3.147,-3.149 l 0,-6.533 c 0,0 0,-3.148 3.147,-3.148 l 11.975,0 c 0,0 3.149,0 3.149,3.148 m -5.589,3.257 -5.982,-3.513 0,7.027 5.982,-3.514 z" /></g><g
           transform="translate(188.7249,59.9922)"
           id="g36"><path
             id="path38"
             style="fill:none;stroke:#ffffff;stroke-width:2;stroke-linecap:butt;stroke-linejoin:miter;stroke-miterlimit:10;stroke-dasharray:none;stroke-opacity:1"
             d="m 0,0 c 10.091,0 18.272,8.181 18.272,18.272 0,10.09 -8.181,18.271 -18.272,18.271 -10.09,0 -18.272,-8.181 -18.272,-18.271 C -18.272,8.181 -10.09,0 0,0" /></g><g
           transform="translate(197.1001,82.0786)"
           id="g40"><path
             id="path42"
             style="fill:#ffffff;fill-opacity:1;fill-rule:nonzero;stroke:none"
             d="m 0,0 c -0.08,-1.777 -1.324,-4.206 -3.723,-7.288 -2.485,-3.223 -4.589,-4.833 -6.309,-4.833 -1.063,0 -1.965,0.98 -2.701,2.946 -0.493,1.803 -0.983,3.607 -1.475,5.406 -0.548,1.967 -1.134,2.949 -1.762,2.949 -0.136,0 -0.612,-0.287 -1.433,-0.861 l -0.859,1.108 c 0.9,0.789 1.788,1.582 2.663,2.372 1.199,1.039 2.1,1.583 2.702,1.64 1.418,0.137 2.292,-0.832 2.622,-2.906 0.351,-2.24 0.599,-3.633 0.735,-4.179 0.411,-1.856 0.86,-2.782 1.352,-2.782 0.38,0 0.954,0.599 1.719,1.799 0.765,1.202 1.173,2.116 1.229,2.745 0.109,1.037 -0.3,1.554 -1.229,1.554 -0.436,0 -0.887,-0.093 -1.351,-0.286 0.902,2.921 2.622,4.341 5.16,4.258 C -0.777,3.589 0.11,2.373 0,0" /></g><g
           transform="translate(281.9034,59.9924)"
           id="g44"><path
             id="path46"
             style="fill:none;stroke:#ffffff;stroke-width:2;stroke-linecap:butt;stroke-linejoin:miter;stroke-miterlimit:10;stroke-dasharray:none;stroke-opacity:1"
             d="m 0,0 c 10.092,0 18.271,8.181 18.271,18.272 0,10.09 -8.179,18.271 -18.271,18.271 -10.091,0 -18.271,-8.181 -18.271,-18.271 C -18.271,8.181 -10.091,0 0,0" /></g><g
           transform="translate(291.039,70.6221)"
           id="g48"><path
             id="path50"
             style="fill:#ffffff;fill-opacity:1;fill-rule:nonzero;stroke:none"
             d="m 0,0 -4.038,0 0,5.898 c 0,1.544 -0.631,2.597 -2.021,2.597 -1.063,0 -1.653,-0.711 -1.928,-1.396 C -8.09,6.853 -8.074,6.511 -8.074,6.167 l 0,-6.167 -4.001,0 c 0,0 0.052,10.448 0,11.398 l 4.001,0 0,-1.789 c 0.236,0.782 1.514,1.898 3.555,1.898 C -1.988,11.507 0,9.867 0,6.338 L 0,0 Z m -16.121,12.823 -0.026,0 c -1.289,0 -2.124,0.872 -2.124,1.975 0,1.126 0.861,1.979 2.175,1.979 1.314,0 2.122,-0.851 2.148,-1.976 0,-1.104 -0.834,-1.978 -2.173,-1.978 M -14.249,0 l -3.562,0 0,11.398 3.562,0 0,-11.398 z" /></g><g
           transform="translate(140.9118,72.0681)"
           id="g52"><path
             id="path54"
             style="fill:#ffffff;fill-opacity:1;fill-rule:evenodd;stroke:none"
             d="m 0,0 1.309,0 c 0,0 0.396,0.044 0.598,0.261 0.186,0.2 0.18,0.575 0.18,0.575 0,0 -0.026,1.757 0.789,2.016 C 3.68,3.107 4.712,1.154 5.806,0.403 6.633,-0.165 7.262,-0.041 7.262,-0.041 L 10.187,0 c 0,0 1.53,0.094 0.804,1.298 -0.059,0.098 -0.422,0.889 -2.175,2.516 -1.834,1.702 -1.588,1.427 0.621,4.372 1.346,1.793 1.884,2.888 1.716,3.356 -0.161,0.447 -1.15,0.329 -1.15,0.329 l -3.294,-0.02 c 0,0 -0.244,0.033 -0.425,-0.075 -0.177,-0.106 -0.291,-0.354 -0.291,-0.354 0,0 -0.521,-1.387 -1.216,-2.567 C 3.311,6.364 2.724,6.233 2.484,6.387 1.927,6.748 2.066,7.835 2.066,8.608 c 0,2.413 0.366,3.419 -0.713,3.68 -0.358,0.086 -0.621,0.143 -1.537,0.152 -1.175,0.012 -2.17,-0.003 -2.733,-0.279 -0.374,-0.183 -0.664,-0.592 -0.487,-0.616 0.217,-0.029 0.71,-0.133 0.972,-0.488 0.337,-0.46 0.325,-1.491 0.325,-1.491 0,0 0.194,-2.841 -0.453,-3.193 -0.443,-0.242 -1.052,0.252 -2.36,2.511 -0.67,1.157 -1.176,2.436 -1.176,2.436 0,0 -0.097,0.239 -0.271,0.367 -0.211,0.155 -0.506,0.205 -0.506,0.205 l -3.13,-0.021 c 0,0 -0.469,-0.013 -0.642,-0.217 -0.153,-0.182 -0.012,-0.558 -0.012,-0.558 0,0 2.45,-5.732 5.224,-8.621 C -2.888,-0.174 0,0 0,0" /></g><g
           transform="translate(142.1468,59.9922)"
           id="g56"><path
             id="path58"
             style="fill:none;stroke:#ffffff;stroke-width:2;stroke-linecap:butt;stroke-linejoin:miter;stroke-miterlimit:10;stroke-dasharray:none;stroke-opacity:1"
             d="m 0,0 c 10.091,0 18.272,8.181 18.272,18.272 0,10.09 -8.181,18.271 -18.272,18.271 -10.09,0 -18.272,-8.181 -18.272,-18.271 C -18.272,8.181 -10.09,0 0,0" /></g></g></g></g></svg>